<?xml version="1.0" encoding="UTF-8" standalone="no"?>
<svg width="14.3" viewBox="0 0 21.45 14.3" version="1.1" height="14.3" xmlns="http://www.w3.org/2000/svg"
   xmlns:svg="http://www.w3.org/2000/svg">
   <g class="jp-icon3" fill="#616161">
      <path
         d="m 10.785156,8.0390625 a 0.97509752,0.97509752 0 0 0 -0.40039,0.083984 L 3.5761719,11.185547 A 0.97500002,0.97500002 0 0 0 3.0859375,12.474609 0.97500002,0.97500002 0 0 0 4.375,12.964844 l 6.619141,-2.9765627 h 8.791015 a 0.97500002,0.97500002 0 0 0 0.97461,-0.9746094 0.97500002,0.97500002 0 0 0 -0.97461,-0.9746094 z" />
      <path
         d="M 10.785156,-0.9609375 A 0.97500002,0.97500002 0 0 0 9.8105469,0.01367188 V 9.0136719 a 0.97500002,0.97500002 0 0 0 0.9746091,0.9746094 0.97500002,0.97500002 0 0 0 0.97461,-0.9746094 V 0.01367188 a 0.97500002,0.97500002 0 0 0 -0.97461,-0.97460938 z" />
      <path
         d="m 10.095703,-0.67578125 -1.4999999,1.5 a 0.97500002,0.97500002 0 0 0 0,1.37890625 0.97500002,0.97500002 0 0 0 1.3789063,0 L 10.785156,1.3925781 11.595703,2.203125 a 0.97500002,0.97500002 0 0 0 1.378906,0 0.97500002,0.97500002 0 0 0 0,-1.37890625 l -1.5,-1.5 a 0.97509752,0.97509752 0 0 0 -1.378906,0 z" />
      <path
         d="m 3.0019531,10.109375 a 0.97500002,0.97500002 0 0 0 -1.1933594,0.689453 l -0.5507812,2.048828 a 0.97509752,0.97509752 0 0 0 0.6894531,1.19336 l 2.0507813,0.548828 A 0.97500002,0.97500002 0 0 0 5.1914062,13.900391 0.97500002,0.97500002 0 0 0 4.5019531,12.707031 L 3.3945313,12.410156 3.6914063,11.302734 A 0.97500002,0.97500002 0 0 0 3.0019531,10.109375 Z " />
  <path
     d=" m 17.595703,6.8242187 a 0.97500002,0.97500002 0 0 0 0,1.3789063 l 0.810547,0.8105469 -0.810547,0.8105469 a
         0.97500002,0.97500002 0 0 0 0,1.3789062 0.97500002,0.97500002 0 0 0 1.378906,0 l 1.5,-1.5 a
         0.97509752,0.97509752 0 0 0 0,-1.3789062 l -1.5,-1.5000001 a 0.97500002,0.97500002 0 0 0 -1.378906,0 z" />
   </g>
</svg>
