<?xml version="1.0" encoding="UTF-8" standalone="no"?>
<svg
   width="14.3"
   viewBox="0 0 21.45 14.3"
   version="1.1"
   height="14.3"
   xmlns="http://www.w3.org/2000/svg"
   xmlns:svg="http://www.w3.org/2000/svg">
  <g
     class="jp-icon3"
     fill="#616161"
     transform="translate(0.75039085,0.49939006)">
    <path
       d="M 0.97460938,-0.32421875 A 0.97509752,0.97509752 0 0 0 0,0.65039062 V 15.650391 A 0.97509752,0.97509752 0 0 0 0.97460938,16.625 H 15.974609 a 0.97509752,0.97509752 0 0 0 0.97461,-0.974609 V 0.65039062 a 0.97509752,0.97509752 0 0 0 -0.97461,-0.97460937 z M 1.9492187,1.625 H 15 V 14.675781 H 1.9492187 Z"
       />
    <path
       d="M 3.9746094,-3.3242188 A 0.97500002,0.97500002 0 0 0 3,-2.3496094 0.97500002,0.97500002 0 0 0 3.9746094,-1.375 H 18 v 13.621094 l -2.714844,2.714844 a 0.97500002,0.97500002 0 0 0 0,1.378906 0.97500002,0.97500002 0 0 0 1.378906,0 l 3,-3 a 0.97509752,0.97509752 0 0 0 0.285157,-0.689453 V -2.3496094 a 0.97509752,0.97509752 0 0 0 -0.97461,-0.9746094 z"
       />
    <path
       d="m 18.974609,-3.3242188 a 0.97500002,0.97500002 0 0 0 -0.689453,0.2851563 l -3,3 a 0.97500002,0.97500002 0 0 0 0,1.3789062 0.97500002,0.97500002 0 0 0 1.378906,0 l 3,-2.9999999 a 0.97500002,0.97500002 0 0 0 0,-1.3789063 0.97500002,0.97500002 0 0 0 -0.689453,-0.2851563 z"
       />
    <path
       d="m 3.9746094,-3.3242188 a 0.97500002,0.97500002 0 0 0 -0.6894531,0.2851563 l -3.00000005,3 a 0.97500002,0.97500002 0 0 0 0,1.3789062 0.97500002,0.97500002 0 0 0 1.37890625,0 l 3,-2.9999999 a 0.97500002,0.97500002 0 0 0 0,-1.3789063 0.97500002,0.97500002 0 0 0 -0.6894531,-0.2851563 z"
       />
    <path
       d="M 3.9746094,-1.2421875 A 0.97500002,0.97500002 0 0 0 3,-0.26757813 V 1.6835937 A 0.97500002,0.97500002 0 0 0 3.9746094,2.6582031 0.97500002,0.97500002 0 0 0 4.9492187,1.6835937 V -0.26757813 A 0.97500002,0.97500002 0 0 0 3.9746094,-1.2421875 Z m 0,5.8496094 A 0.97500002,0.97500002 0 0 0 3,5.5820312 V 7.5332031 A 0.97500002,0.97500002 0 0 0 3.9746094,8.5078125 0.97500002,0.97500002 0 0 0 4.9492187,7.5332031 V 5.5820312 A 0.97500002,0.97500002 0 0 0 3.9746094,4.6074219 Z m 0,5.8496091 A 0.97500002,0.97500002 0 0 0 3,11.433594 v 0.8125 l -0.2324219,0.232422 a 0.97500002,0.97500002 0 0 0 0,1.378906 0.97500002,0.97500002 0 0 0 1.3789063,0 L 4.6640625,13.339844 A 0.97509752,0.97509752 0 0 0 4.9492187,12.650391 V 11.433594 A 0.97500002,0.97500002 0 0 0 3.9746094,10.457031 Z"
       />
    <path
       d="M 3.9746094,11.675781 A 0.97500002,0.97500002 0 0 0 3,12.650391 0.97500002,0.97500002 0 0 0 3.9746094,13.625 h 0.9746093 a 0.97500002,0.97500002 0 0 0 0.9765625,-0.974609 0.97500002,0.97500002 0 0 0 -0.9765625,-0.97461 z m 4.875,0 A 0.97500002,0.97500002 0 0 0 7.875,12.650391 0.97500002,0.97500002 0 0 0 8.8496094,13.625 h 1.9511716 a 0.97500002,0.97500002 0 0 0 0.97461,-0.974609 0.97500002,0.97500002 0 0 0 -0.97461,-0.97461 z m 5.8496096,0 a 0.97500002,0.97500002 0 0 0 -0.97461,0.97461 0.97500002,0.97500002 0 0 0 0.97461,0.974609 h 1.951172 A 0.97500002,0.97500002 0 0 0 17.625,12.650391 0.97500002,0.97500002 0 0 0 16.650391,11.675781 Z"
       />
  </g>
</svg>
