<?xml version="1.0" encoding="UTF-8" standalone="no"?>
<svg
   width="12.3"
   viewBox="0 0 18.45 13.3"
   version="1.1"
   height="13.3"
   xmlns="http://www.w3.org/2000/svg"
   xmlns:svg="http://www.w3.org/2000/svg">
  <g
     class="jp-icon3"
     fill="#616161"
      transform="translate(0.75038755,0.49961028)">
    <path
       d="M 8.4746094,-3.0742188 A 0.97509752,0.97509752 0 0 0 7.6035156,-2.5371094 L 0.10351562,12.462891 A 0.97509752,0.97509752 0 0 0 0,12.900391 c 0,0 0.01804825,0.240769 0.07226562,0.392578 C 0.126483,13.444777 0.21694,13.605641 0.34375,13.757813 0.59736999,14.062156 0.9779784,14.325566 1.5507812,14.554688 2.696387,15.01293 4.6596132,15.375 8.4746094,15.375 c 3.8149966,0 5.7801756,-0.36207 6.9257816,-0.820312 0.572802,-0.229122 0.953411,-0.492532 1.207031,-0.796875 0.12681,-0.152172 0.217267,-0.313036 0.271484,-0.464844 0.05422,-0.151809 0.07031,-0.392578 0.07031,-0.392578 a 0.97509752,0.97509752 0 0 0 -0.101563,-0.4375 L 9.3476563,-2.5371094 A 0.97509752,0.97509752 0 0 0 8.4746094,-3.0742188 Z M 8.4765625,0.08007812 14.779297,12.6875 c -0.05791,0.02963 -0.01621,0.02172 -0.103516,0.05664 -0.729392,0.291757 -2.516175,0.68164 -6.2011716,0.68164 -3.6849963,0 -5.4698264,-0.389883 -6.1992188,-0.68164 C 2.1880816,12.70922 2.2297876,12.71713 2.171875,12.6875 Z"
       />
    <path
       d="M 10.378906,10.460938 A 0.97500002,0.97500002 0 0 0 9.3710938,11.402344 0.97500002,0.97500002 0 0 0 10.3125,12.410156 l 0.03906,0.002 0.542968,0.02539 0.503907,0.0332 0.464843,0.03906 0.328125,0.0332 a 0.97500002,0.97500002 0 0 0 1.06836,-0.871094 0.97500002,0.97500002 0 0 0 -0.871094,-1.068359 l -0.337891,-0.03516 a 0.97509752,0.97509752 0 0 0 -0.01758,-0.002 l -0.482422,-0.03906 a 0.97509752,0.97509752 0 0 0 -0.01758,-0.002 l -0.519531,-0.0332 a 0.97509752,0.97509752 0 0 0 -0.01563,-0.002 l -0.556641,-0.02734 a 0.97509752,0.97509752 0 0 0 -0.01563,0 z m -3.9804685,0.0078 -0.4472656,0.02148 a 0.97509752,0.97509752 0 0 0 -0.015625,0.002 l -0.5195313,0.0332 a 0.97509752,0.97509752 0 0 0 -0.015625,0.002 l -0.4824219,0.03906 a 0.97509752,0.97509752 0 0 0 -0.019531,0.002 l -0.4453125,0.04492 a 0.97509752,0.97509752 0 0 0 -0.019531,0.002 l -0.050781,0.0059 a 0.97500002,0.97500002 0 0 0 -0.8476562,1.08789 0.97500002,0.97500002 0 0 0 1.0859374,0.84961 l 0.039063,-0.0059 0.4277344,-0.04297 0.4648438,-0.03906 0.5019531,-0.0332 0.4394531,-0.02148 A 0.97500002,0.97500002 0 0 0 7.4199219,11.394531 0.97500002,0.97500002 0 0 0 6.3984375,10.46875 Z m 8.9960935,1.460938 a 0.97500002,0.97500002 0 0 0 -0.28125,1.273437 0.97500002,0.97500002 0 0 0 0.966797,0.666016 0.97500002,0.97500002 0 0 0 0.863281,-1.074219 v -0.01758 a 0.97509752,0.97509752 0 0 0 -0.01758,-0.09961 l -0.0039,-0.01953 a 0.97509752,0.97509752 0 0 0 -0.02148,-0.08398 l -0.0078,-0.02734 a 0.97509752,0.97509752 0 0 0 -0.03125,-0.08203 l -0.01367,-0.0332 a 0.97509752,0.97509752 0 0 0 -0.03711,-0.08008 l -0.01953,-0.04102 a 0.97509752,0.97509752 0 0 0 -0.04297,-0.07422 l -0.0059,-0.0098 a 0.97500002,0.97500002 0 0 0 -1.347656,-0.296875 z"
       />
  </g>
</svg>
