<?xml version="1.0" encoding="UTF-8" standalone="no"?>
<svg
   width="12.8"
   viewBox="0 0 19.2 12.3"
   version="1.1"
   height="12.3"
   xmlns="http://www.w3.org/2000/svg"
   xmlns:svg="http://www.w3.org/2000/svg">
  <g
     class="jp-icon3"
     fill="#616161"
     transform="translate(0.7503905,0.49960916)">
    <path
       d="m 6.225,2.6499939 a 5.25,5.25 0 0 0 -5.24999998,5.25 A 5.25,5.25 0 0 0 6.225,13.149994 5.25,5.25 0 0 0 11.410547,8.6441339 5.25,5.25 0 0 1 6.225,3.3999939 5.25,5.25 0 0 1 6.2894531,2.6529239 5.25,5.25 0 0 0 6.225,2.6499939 Z"
       />
    <path
       d="M 6.2246094,1.6757812 C 2.7981888,1.6757813 0,4.47397 0,7.9003906 -6.5265155e-8,11.326811 2.7981887,14.125 6.2246094,14.125 a 0.97509752,0.97509752 0 0 0 0.00195,0 C 9.3113218,14.118272 11.93777,11.836826 12.375,8.7832031 A 0.97509752,0.97509752 0 0 0 11.421875,7.6699219 C 9.0734969,7.6410905 7.2037815,5.7503771 7.1992187,3.4023438 7.2026815,3.2024961 7.2205938,3.0040526 7.2519531,2.8066406 A 0.97509752,0.97509752 0 0 0 6.3398437,1.6796875 c -0.025467,-0.00131 -0.050691,-0.0029 -0.076172,-0.00391 a 0.97509752,0.97509752 0 0 0 -0.039063,0 z M 5.3320312,3.8046875 c 0.191742,2.767078 2.184134,4.9590576 4.8300778,5.5507813 -0.6065615,1.6468932 -2.1170701,2.8155162 -3.9374996,2.8203122 -2.3725635,0 -4.2753907,-1.902827 -4.2753907,-4.2753904 0,-2.0550907 1.4589167,-3.6769146 3.3828125,-4.0957031 z"
       />
    <path
       d="M 11.474609,-2.8242188 C 8.0481887,-2.8242188 5.25,-0.02603001 5.25,3.4003906 5.25,6.8268113 8.0481887,9.625 11.474609,9.625 c 3.426421,0 6.22461,-2.7981887 6.22461,-6.2246094 0,-3.42642061 -2.798189,-6.2246094 -6.22461,-6.2246094 z m 0,1.9492188 c 2.372564,0 4.275391,1.9028272 4.275391,4.2753906 0,2.3725635 -1.902827,4.2753906 -4.275391,4.2753906 -2.3725631,0 -4.2753902,-1.9028271 -4.2753903,-4.2753906 0,-2.3725634 1.9028272,-4.2753906 4.2753903,-4.2753906 z"
       />
  </g>
</svg>
