<?xml version="1.0" encoding="UTF-8" standalone="no"?>
<svg
   width="12.299"
   viewBox="0 0 18.448499 14.299001"
   version="1.1"
   height="14.299"
   xmlns="http://www.w3.org/2000/svg"
   xmlns:svg="http://www.w3.org/2000/svg">
  <g
     class="jp-icon3"
     fill="#616161"
     transform="translate(0.7496415,0.4991099)">
    <path
       d="M 10.378906,11.710938 A 0.97500002,0.97500002 0 0 0 9.3710938,12.652344 0.97500002,0.97500002 0 0 0 10.3125,13.660156 l 0.03906,0.002 0.542968,0.02539 0.503907,0.0332 0.464843,0.03906 0.328125,0.0332 a 0.97500002,0.97500002 0 0 0 1.06836,-0.871094 0.97500002,0.97500002 0 0 0 -0.871094,-1.068359 l -0.337891,-0.03516 a 0.97509752,0.97509752 0 0 0 -0.01758,-0.002 l -0.482422,-0.03906 a 0.97509752,0.97509752 0 0 0 -0.01758,-0.002 l -0.519531,-0.0332 a 0.97509752,0.97509752 0 0 0 -0.01563,-0.002 l -0.556641,-0.02734 a 0.97509752,0.97509752 0 0 0 -0.01563,0 z m -3.9804685,0.0078 -0.4472656,0.02148 a 0.97509752,0.97509752 0 0 0 -0.015625,0.002 l -0.5195313,0.0332 a 0.97509752,0.97509752 0 0 0 -0.015625,0.002 l -0.4824219,0.03906 a 0.97509752,0.97509752 0 0 0 -0.019531,0.002 l -0.4453125,0.04492 a 0.97509752,0.97509752 0 0 0 -0.019531,0.002 l -0.050781,0.0078 a 0.97500002,0.97500002 0 0 0 -0.8476562,1.085937 0.97500002,0.97500002 0 0 0 1.0859374,0.84961 l 0.039063,-0.0059 0.4277344,-0.04297 0.4648438,-0.03906 0.5019531,-0.0332 0.4394531,-0.02148 A 0.97500002,0.97500002 0 0 0 7.4199219,12.644531 0.97500002,0.97500002 0 0 0 6.3984375,11.71875 Z m 8.9960935,1.462891 a 0.97500002,0.97500002 0 0 0 -0.28125,1.271484 0.97500002,0.97500002 0 0 0 0.966797,0.666016 0.97500002,0.97500002 0 0 0 0.863281,-1.074219 v -0.01758 a 0.97509752,0.97509752 0 0 0 -0.01758,-0.09961 l -0.0039,-0.01953 a 0.97509752,0.97509752 0 0 0 -0.02148,-0.08398 l -0.0078,-0.02734 a 0.97509752,0.97509752 0 0 0 -0.03125,-0.08203 l -0.01367,-0.0332 a 0.97509752,0.97509752 0 0 0 -0.03711,-0.08008 l -0.01953,-0.04102 a 0.97509752,0.97509752 0 0 0 -0.04297,-0.07422 l -0.0059,-0.0098 a 0.97500002,0.97500002 0 0 0 -1.347656,-0.294922 z"
       />
    <path
       d="m 8.4746094,-3.3242188 c -3.8149962,0 -5.7782224,0.3601171 -6.9238282,0.8183594 -0.5728028,0.2291212 -0.95341121,0.492531 -1.2070312,0.796875 -0.12680999,0.152172 -0.21726701,0.3149883 -0.27148438,0.4667969 C 0.01804826,-1.0903789 0,-0.84960938 0,-0.84960938 V 14.150391 c 0,0 0.01804825,0.240769 0.07226562,0.392578 C 0.126483,14.694777 0.21694,14.855641 0.34375,15.007813 0.59736999,15.312156 0.9779784,15.575566 1.5507812,15.804688 2.696387,16.26293 4.6596132,16.625 8.4746094,16.625 c 3.8149966,0 5.7801756,-0.36207 6.9257816,-0.820312 0.572802,-0.229122 0.953411,-0.492532 1.207031,-0.796875 0.12681,-0.152172 0.217267,-0.313036 0.271484,-0.464844 0.05422,-0.151809 0.07031,-0.392578 0.07031,-0.392578 V -0.84960938 c 0,0 -0.01609,-0.24076952 -0.07031,-0.39257812 -0.05422,-0.1518086 -0.144674,-0.3146249 -0.271484,-0.4667969 -0.25362,-0.304344 -0.634229,-0.5677538 -1.207031,-0.796875 -1.145606,-0.4582423 -3.110785,-0.8183594 -6.9257816,-0.8183594 z m 0,1.9492188 c 3.0471916,0 4.5852506,0.2665045 5.5117186,0.5234375 -0.926377,0.25696341 -2.464139,0.52734375 -5.5117186,0.52734375 -3.0487048,0 -4.5856075,-0.27029195 -5.5117188,-0.52734375 C 3.8890936,-1.1085838 5.426293,-1.375 8.4746094,-1.375 Z M 1.9492187,0.8984375 C 3.1300711,1.3036077 4.9683623,1.625 8.4746094,1.625 11.979656,1.625 13.81903,1.3034006 15,0.8984375 V 13.818359 c -0.03402,0.02875 -0.05133,0.06663 -0.324219,0.175782 -0.729392,0.291757 -2.516175,0.68164 -6.2011716,0.68164 -3.6849963,0 -5.4698264,-0.389883 -6.1992188,-0.68164 C 2.0012328,13.884477 1.9826178,13.846664 1.9492187,13.818359 Z"
       />
  </g>
</svg>
