<?xml version="1.0" encoding="UTF-8" standalone="no"?>
<svg
   width="14.3"
   viewBox="0 0 21.45 14.3"
   version="1.1"
   height="14.3"
   xmlns="http://www.w3.org/2000/svg"
   xmlns:svg="http://www.w3.org/2000/svg">
  <g
     class="jp-icon3"
     fill="#616161">
   <path
      d="m 6.9746094,6.5996094 a 0.97509752,0.97509752 0 0 0 -0.7792969,0.390625 l -4.5,5.9999996 a 0.97500002,0.97500002 0 0 0 0.011719,0.08399 0.97500002,0.97500002 0 0 0 -0.2070312,0.5 0.97500002,0.97500002 0 0 0 0.3828125,0.730469 0.97500002,0.97500002 0 0 0 0.00781,0.05078 0.97500002,0.97500002 0 0 0 0.3007813,0.07617 0.97500002,0.97500002 0 0 0 0.2832031,0.11914 H 15.974609 a 0.97509752,0.97509752 0 0 0 0.873047,-0.539062 l 3,-6.0000002 A 0.97509752,0.97509752 0 0 0 18.974609,6.5996094 Z m 0.4882812,1.9511719 h 9.9355464 l -2.02539,4.0488277 H 4.4257812 Z"
      />
   <path
      d="M 11.474609,-2.4003906 A 0.97500002,0.97500002 0 0 0 10.5,-1.4257812 V 10.574219 a 0.97500002,0.97500002 0 0 0 0.974609,0.976562 0.97500002,0.97500002 0 0 0 0.97461,-0.976562 V -1.4257812 a 0.97500002,0.97500002 0 0 0 -0.97461,-0.9746094 z"
      />
   <path
      d="m 10.785156,-2.1152344 -1.4999997,1.50000003 a 0.97500002,0.97500002 0 0 0 0,1.37890624 0.97500002,0.97500002 0 0 0 1.3789067,0 l 0.810546,-0.81054687 0.810547,0.81054687 a 0.97500002,0.97500002 0 0 0 1.378907,0 0.97500002,0.97500002 0 0 0 0,-1.37890624 l -1.5,-1.50000003 a 0.97509752,0.97509752 0 0 0 -1.378907,0 z"
      />
   </g>
</svg>
