<?xml version="1.0" encoding="UTF-8" standalone="no"?>
<svg
   width="11.8"
   viewBox="0 0 17.7 11.8"
   version="1.1"
   height="11.8"
   xmlns="http://www.w3.org/2000/svg"
   xmlns:svg="http://www.w3.org/2000/svg">
  <g
     class="jp-icon3"
     fill="#616161"
     transform="translate(0.7503905,0.4996094)">
    <path
       d="m 5.4750003,2.7749937 a 5.25,5.25 0 0 0 5.2499997,5.25 5.25,5.25 0 0 0 -5.2499997,-5.25 z"
       />
    <path
       d="M 5.4746094,1.8007812 A 0.97509752,0.97509752 0 0 0 4.5,2.7753906 C 4.5,6.2018111 7.2981889,8.9999998 10.724609,9 a 0.97509752,0.97509752 0 0 0 0.97461,-0.9746094 c 0,-3.4264205 -2.7981891,-6.2246092 -6.2246096,-6.2246094 z M 6.6953125,3.9941406 C 8.061332,4.4049806 9.0950195,5.4386679 9.5058594,6.8046875 8.1395235,6.3938951 7.1061048,5.3604766 6.6953125,3.9941406 Z"
       />
    <path
       d="M 6.2246094,1.0507812 C 2.7981887,1.0507812 0,3.84897 0,7.2753906 0,10.701811 2.7981887,13.5 6.2246094,13.5 9.65103,13.5 12.449219,10.701811 12.449219,7.2753906 12.449219,3.84897 9.65103,1.0507813 6.2246094,1.0507812 Z M 6.2246094,3 C 8.5971728,3 10.5,4.9028272 10.5,7.2753906 10.5,9.6479541 8.5971728,11.550781 6.2246094,11.550781 3.8520459,11.550781 1.9492187,9.6479541 1.9492187,7.2753906 1.9492188,4.9028272 3.8520459,3 6.2246094,3 Z"
       />
    <path
       d="M 9.9746094,-2.6992188 C 6.5481887,-2.6992188 3.75,0.09896999 3.75,3.5253906 3.75,6.9518113 6.5481887,9.75 9.9746094,9.75 c 3.4264206,0 6.2246096,-2.7981887 6.2246096,-6.2246094 0,-3.42642061 -2.798189,-6.2246094 -6.2246096,-6.2246094 z m 0,1.9492188 C 12.347173,-0.75 14.25,1.1528272 14.25,3.5253906 c 0,2.3725635 -1.902827,4.2753906 -4.2753906,4.2753906 -2.3725635,0 -4.2753907,-1.9028271 -4.2753907,-4.2753906 C 5.6992187,1.1528272 7.6020459,-0.75 9.9746094,-0.75 Z"
       />
  </g>
</svg>
