<?xml version="1.0" encoding="UTF-8" standalone="no"?>
<svg
   width="12.424"
   viewBox="0 0 18.636 9.3000002"
   version="1.1"
   height="9.3000002"
   xmlns="http://www.w3.org/2000/svg"
   xmlns:svg="http://www.w3.org/2000/svg">
  <g
     class="jp-icon3"
     fill="#616161"
     transform="translate(0.75013988,0.4996095)">
    <path
       d="M 1.0683594,3.9257813 A 0.97500002,0.97500002 0 0 0 0.09375,4.9003906 c 0,0 0.0199614,1.5024693 1.1621094,2.8730469 1.1421479,1.3705776 3.3675039,2.6015625 7.3125,2.6015625 3.9449956,0 6.1683986,-1.2309849 7.3105466,-2.6015625 1.142148,-1.3705776 1.164063,-2.8730469 1.164063,-2.8730469 A 0.97500002,0.97500002 0 0 0 16.068359,3.9257813 0.97500002,0.97500002 0 0 0 15.09375,4.9003906 c 0,0 0.01996,0.7455798 -0.712891,1.625 -0.73285,0.8794202 -2.257503,1.9003907 -5.8124996,1.9003907 -3.5549965,0 -5.081603,-1.0209705 -5.8144531,-1.9003907 -0.7328502,-0.8794202 -0.7109375,-1.625 -0.7109375,-1.625 A 0.97500002,0.97500002 0 0 0 1.0683594,3.9257813 Z"
       />
    <path
       d="M 4.0683594,3.9257813 A 0.97500002,0.97500002 0 0 0 3.09375,4.9003906 c 0,0 0.024046,0.3742631 0.171875,0.6699219 0.1478294,0.2956588 0.4181616,0.6199202 0.8242187,0.890625 C 4.901958,7.002347 6.2100284,7.375 8.5683594,7.375 10.92669,7.375 12.234761,7.002347 13.046875,6.4609375 13.452932,6.1902327 13.721311,5.8659712 13.869141,5.5703125 14.01697,5.2746538 14.042969,4.9003906 14.042969,4.9003906 A 0.97500002,0.97500002 0 0 0 13.068359,3.9257813 0.97500002,0.97500002 0 0 0 12.09375,4.9003906 c 0,0 0.02404,-0.1867628 0.03125,-0.2011719 0.0072,-0.014409 -0.0037,0.034377 -0.160156,0.1386719 -0.312885,0.2085897 -1.25482,0.5878907 -3.3964846,0.5878906 -2.1416645,0 -3.0835998,-0.3793008 -3.3964844,-0.5878906 C 5.0154327,4.7335958 5.0025611,4.6848097 5.0097656,4.6992187 c 0.0072,0.014409 0.033203,0.2011719 0.033203,0.2011719 A 0.97500002,0.97500002 0 0 0 4.0683594,3.9257813 Z"
       />
    <path
       d="m 8.5683594,-2.0742188 c -4.716662,0 -7.0736345,1.69023778 -7.9980469,3.5390625 -0.92441237,1.8488248 -0.44726562,3.671875 -0.44726563,3.671875 A 0.97500002,0.97500002 0 0 0 1.3046875,5.8457031 0.97500002,0.97500002 0 0 0 2.0136719,4.6640625 c 0,0 -0.2748049,-1.1769528 0.3007812,-2.328125 C 2.8900392,1.1847653 4.2850303,-0.125 8.5683594,-0.125 c 4.2833286,0 5.6763666,1.3097653 6.2519536,2.4609375 0.575586,1.1511722 0.302734,2.328125 0.302734,2.328125 a 0.97500002,0.97500002 0 0 0 0.708984,1.1816406 0.97500002,0.97500002 0 0 0 1.181641,-0.7089844 c 0,0 0.475193,-1.8230502 -0.449219,-3.671875 -0.924412,-1.84882471 -3.279432,-3.5390624 -7.9960936,-3.5390625 z"
       />
    <path
       d="m 8.5683594,0.92578125 c -1.5812484,0 -2.7260935,0.18926555 -3.5957032,0.53710935 -0.8696096,0.3478439 -1.4735685,0.8944027 -1.7773437,1.5019532 -0.6075505,1.2151009 0,2.3710937 0,2.3710937 A 0.97500002,0.97500002 0 0 0 4.5039062,5.7714844 0.97500002,0.97500002 0 0 0 4.9394531,4.4648437 c 0,0 -0.1424488,-0.3440086 0,-0.6289062 0.071224,-0.1424488 0.2192204,-0.3478444 0.7558594,-0.5625 C 6.2319515,3.0587819 7.1496108,2.875 8.5683594,2.875 c 1.4187484,0 2.3364076,0.1837819 2.8730466,0.3984375 0.536639,0.2146556 0.682682,0.4200512 0.753907,0.5625 0.142448,0.2848976 -1e-6,0.6289062 0,0.6289062 a 0.97500002,0.97500002 0 0 0 0.4375,1.3066407 0.97500002,0.97500002 0 0 0 1.30664,-0.4355469 c 0,0 0.607551,-1.1559928 0,-2.3710937 C 13.635678,2.3572933 13.033672,1.8107345 12.164063,1.4628906 11.294453,1.1150468 10.149608,0.92578125 8.5683594,0.92578125 Z"
       />
  </g>
</svg>
