<?xml version="1.0" encoding="UTF-8" standalone="no"?>
<svg width="14.3" viewBox="0 0 21.45 14.3" version="1.1" height="14.3" xmlns="http://www.w3.org/2000/svg">
   <g class="jp-icon3" fill="#616161" transform="translate(0.75039085,0.49939006)">
      <path
         d="M 0.97460938,-0.32421875 A 0.97509752,0.97509752 0 0 0 0,0.65039062 V 15.650391 A 0.97509752,0.97509752 0 0 0 0.97460938,16.625 H 15.974609 a 0.97509752,0.97509752 0 0 0 0.97461,-0.974609 V 0.65039062 a 0.97509752,0.97509752 0 0 0 -0.97461,-0.97460937 z M 1.9492187,1.625 H 15 V 14.675781 H 1.9492187 Z" />
      <path
         d="M 3.9746094,-3.3242188 A 0.97500002,0.97500002 0 0 0 3,-2.3496094 0.97500002,0.97500002 0 0 0 3.9746094,-1.375 H 18 v 13.621094 l -2.714844,2.714844 a 0.97500002,0.97500002 0 0 0 0,1.378906 0.97500002,0.97500002 0 0 0 1.378906,0 l 3,-3 a 0.97509752,0.97509752 0 0 0 0.285157,-0.689453 V -2.3496094 a 0.97509752,0.97509752 0 0 0 -0.97461,-0.9746094 z" />
      <path
         d="m 18.974609,-3.3242188 a 0.97500002,0.97500002 0 0 0 -0.689453,0.2851563 l -3,3 a 0.97500002,0.97500002 0 0 0 0,1.3789062 0.97500002,0.97500002 0 0 0 1.378906,0 l 3,-2.9999999 a 0.97500002,0.97500002 0 0 0 0,-1.3789063 0.97500002,0.97500002 0 0 0 -0.689453,-0.2851563 z" />
      <path
         d="m 3.9746094,-3.3242188 a 0.97500002,0.97500002 0 0 0 -0.6894531,0.2851563 l -3.00000005,3 a 0.97500002,0.97500002 0 0 0 0,1.3789062 0.97500002,0.97500002 0 0 0 1.37890625,0 l 3,-2.9999999 a 0.97500002,0.97500002 0 0 0 0,-1.3789063 0.97500002,0.97500002 0 0 0 -0.6894531,-0.2851563 z" />
   </g>
</svg>
