<?xml version="1.0" encoding="UTF-8" standalone="no"?>
<svg
   width="14.3"
   viewBox="0 0 21.45 14.3"
   version="1.1"
   height="14.3"
   xmlns="http://www.w3.org/2000/svg">
  <g class="jp-icon3" fill="#616161">
      <path
         d="M 1.7695312,0.25 A 0.97509752,0.97509752 0 0 0 0.79101562,1.2207031 L 0.74414062,16.126953 A 0.97509752,0.97509752 0 0 0 1.71875,17.105469 l 15.074219,0.02734 a 0.97509752,0.97509752 0 0 0 0.976562,-0.978515 l -0.0332,-7.0566407 A 0.97509752,0.97509752 0 0 0 17.455078,8.4179688 L 9.7226563,0.55859375 A 0.97509752,0.97509752 0 0 0 9.0292969,0.26757813 Z m 0.9687501,1.9511719 5.8789062,0.015625 7.1699215,7.2851562 0.02734,5.6796879 -13.1152342,-0.02539 z"
         />
      <path
         d="m 4.9628906,-2.8339844 a 0.97500002,0.97500002 0 0 0 -0.9804687,0.96875 0.97500002,0.97500002 0 0 0 0.96875,0.9824219 l 7.0117191,0.0429687 6.789062,6.78515625 -0.05078,6.9570315 -2.478516,2.511719 a 0.97500002,0.97500002 0 0 0 0.0078,1.378906 0.97500002,0.97500002 0 0 0 1.378906,-0.0098 l 2.757812,-2.792969 a 0.97509752,0.97509752 0 0 0 0.28125,-0.677734 l 0.05664,-7.7617188 A 0.97509752,0.97509752 0 0 0 20.419922,4.8554687 L 13.058594,-2.5019531 A 0.97509752,0.97509752 0 0 0 12.375,-2.7871094 Z"
         />
      <path
         d="M 4.2441406,-2.5371094 1.125,0.4921875 a 0.97500002,0.97500002 0 0 0 -0.019531,1.3789062 0.97500002,0.97500002 0 0 0 1.3769532,0.019531 l 3.1191406,-3.0292969 a 0.97500002,0.97500002 0 0 0 0.021484,-1.3789062 0.97500002,0.97500002 0 0 0 -1.3789063,-0.019531 z"
         />
      <path
         d="m 12.277344,-2.7636719 a 0.97500002,0.97500002 0 0 0 -0.69336,0.2753906 L 8.4648438,0.54101562 a 0.97500002,0.97500002 0 0 0 -0.019531,1.37890628 0.97500002,0.97500002 0 0 0 1.3789063,0.021484 l 3.1191402,-3.0312499 a 0.97500002,0.97500002 0 0 0 0.01953,-1.3789063 0.97500002,0.97500002 0 0 0 -0.685547,-0.2949219 z"
         />
      <path
         d="m 19.671875,4.9160156 a 0.97500002,0.97500002 0 0 0 -0.693359,0.2773438 l -3.119141,3.0292969 a 0.97500002,0.97500002 0 0 0 -0.01953,1.3789062 0.97500002,0.97500002 0 0 0 1.378906,0.019531 l 3.119141,-3.0292969 a 0.97500002,0.97500002 0 0 0 0.01953,-1.3789063 0.97500002,0.97500002 0 0 0 -0.685547,-0.296875 z"
         />
   </g>
</svg>
