<?xml version="1.0" encoding="UTF-8" standalone="no"?>
<svg
   width="14.3"
   viewBox="0 0 21.45 14.3"
   version="1.1"
   height="14.3"
   xmlns="http://www.w3.org/2000/svg">
  <g class="jp-icon3" fill="#616161" transform="translate(1.5708563,0.00180506)">
    <path
       d="M 4.4522062,2.3786768 A 0.84747641,0.84747641 0 0 0 3.9377998,2.7736083 0.84747641,0.84747641 0 0 0 4.2481031,3.9318526 L 9.400465,6.9071134 v 6.0119176 a 0.84747641,0.84747641 0 0 0 0.846282,0.847942 0.84747641,0.84747641 0 0 0 0.847941,-0.847942 V 6.9502572 L 14.051695,5.2427595 A 0.84747641,0.84747641 0 0 0 14.361999,4.0845152 0.84747641,0.84747641 0 0 0 13.203754,3.7742119 L 10.284912,5.4601377 5.096044,2.463305 A 0.84747641,0.84747641 0 0 0 4.4522062,2.3786768 Z"/>
    <path
       d="M 6.8383888,0.95825114 C 5.9528068,1.4414519 5.0840336,1.9586524 4.2099374,2.463305 3.9481221,2.6147686 3.7868664,2.8942785 3.7867966,3.1967492 v 6.4815216 c -5.23e-4,0.3030635 0.160812,0.5833432 0.4231408,0.7351032 l 5.6136686,3.240761 c 0.262333,0.151549 0.585608,0.151549 0.847941,0 0.833237,-0.47774 1.663269,-0.961235 2.490724,-1.448636 0.186078,-1.299547 0.831893,-4.5092316 1.428478,-8.4131553 C 11.790245,2.7022024 6.8839909,0.96881974 6.8383888,0.95825114 Z M 7.0010076,2.8101145 12.702623,4.8843343 11.627347,11.145159 10.246747,11.94166 5.4810192,9.1904149 V 3.686265 Z"/>
    <path
       d="M 3.9573209,-3.4506459 C 3.3581223,-3.6901604 2.6896393,-3.322701 2.5691144,-2.6875606 L 0.0182973,11.169197 c -0.09210645,0.483599 0.17069866,0.964784 0.6268023,1.147647 l 13.5465654,5.430192 c 0.599199,0.239514 1.267682,-0.127945 1.388208,-0.763086 L 18.289989,2.7289435 c 0.09211,-0.4836 -0.170699,-0.9647854 -0.626803,-1.1476488 z M 4.3510813,-1.0788387 16.114261,3.1759226 13.797905,15.373214 2.1920163,10.720204 Z"/>
  </g>
</svg>
