<?xml version="1.0" encoding="UTF-8" standalone="no"?>
<svg
   width="14.3"
   viewBox="0 0 21.45 14.3"
   version="1.1"
   height="14.3"
   xmlns="http://www.w3.org/2000/svg">

  <g class="jp-icon3" fill="#616161">
  <path
     d="M 12.138672,-2.3847656 8.21875,-0.12109375 A 0.9975,0.9975 0 0 0 7.8535156,1.2402344 0.9975,0.9975 0 0 0 9.2167969,1.6054687 l 3.4199221,-1.97460933 5.609375,3.23828123 v 6.4785157 l -3.582031,2.0664067 a 0.9975,0.9975 0 0 0 -0.365235,1.363281 0.9975,0.9975 0 0 0 1.363281,0.365234 l 4.080078,-2.355469 a 0.99759975,0.99759975 0 0 0 0.5,-0.865234 V 2.2929688 a 0.99759975,0.99759975 0 0 0 -0.5,-0.8632813 l -6.605468,-3.8144531 a 0.99759975,0.99759975 0 0 0 -0.998047,0 z"/>
  <path
     d="M 5.2109375,-3.3242188 A 0.99759975,0.99759975 0 0 0 3.8613281,-2.5839844 L 1.2265625,11.244141 a 0.99759975,0.99759975 0 0 0 0.609375,1.113281 L 15.005859,17.625 a 0.99759975,0.99759975 0 0 0 1.34961,-0.740234 L 18.990234,3.0566406 A 0.99759975,0.99759975 0 0 0 18.380859,1.9433594 Z M 5.59375,-1.0234375 16.875,3.4902344 14.623047,15.322266 3.3398438,10.808594 Z"/>
  <path
     d="M 5.8164062,1.3300781 A 0.9975,0.9975 0 0 0 5.2109375,1.7949219 0.9975,0.9975 0 0 0 5.5761719,3.1582031 l 6.0644531,3.5019531 v 7.0761718 a 0.9975,0.9975 0 0 0 0.996094,0.998047 0.9975,0.9975 0 0 0 0.998047,-0.998047 V 6.7109375 L 17.115234,4.7011719 A 0.9975,0.9975 0 0 0 17.480469,3.3378906 0.9975,0.9975 0 0 0 16.117187,2.9726563 L 12.681641,4.9570312 6.5742187,1.4296875 A 0.9975,0.9975 0 0 0 5.8164062,1.3300781 Z"/>
  <path
     d="m 8.9785156,-0.22265625 a 0.9975,0.9975 0 0 0 -0.3417968,0.0449219 0.9975,0.9975 0 0 0 -0.3710938,0.0488281 0.9975,0.9975 0 0 0 -0.044922,0.005859 L 5.53125,1.4296875 A 0.99759975,0.99759975 0 0 0 5.0332031,2.2929688 V 9.921875 A 0.99759975,0.99759975 0 0 0 5.53125,10.787109 l 6.607422,3.814454 a 0.99759975,0.99759975 0 0 0 0.998047,0 l 2.527344,-1.460938 a 0.9975,0.9975 0 0 0 0.04883,-0.04297 0.9975,0.9975 0 0 0 0.05664,-0.04883 0.9975,0.9975 0 0 0 0.363281,-0.580078 0.9975,0.9975 0 0 0 0.01563,-0.02344 L 17.599609,4.0058594 A 0.9975,0.9975 0 0 0 17.578125,3.5917969 0.9975,0.9975 0 0 0 16.951172,2.6738281 L 9.0605469,-0.19726562 a 0.9975,0.9975 0 0 0 -0.046875,0.001953 0.9975,0.9975 0 0 0 -0.035156,-0.0273438 z m -0.1621093,2.06054685 6.7109377,2.4414063 -1.265625,7.3691411 -1.625,0.9375 L 7.0273437,9.3476563 V 2.8691406 Z"/>
   </g>
</svg>
