<?xml version="1.0" encoding="UTF-8" standalone="no"?>
<svg
   width="14.3"
   viewBox="0 0 21.45 14.3"
   version="1.1"
   height="14.3"
   xmlns="http://www.w3.org/2000/svg">

  <g class="jp-icon3" fill="#616161" transform="translate(-0.57605304,1.4306683)">
    <path
       d="M 5.8164062,1.3300781 A 0.9975,0.9975 0 0 0 5.2109375,1.7949219 0.9975,0.9975 0 0 0 5.5761719,3.1582031 l 6.0644531,3.5019531 v 7.0761718 a 0.9975,0.9975 0 0 0 0.996094,0.998047 0.9975,0.9975 0 0 0 0.998047,-0.998047 V 6.7109375 L 17.115234,4.7011719 A 0.9975,0.9975 0 0 0 17.480469,3.3378906 0.9975,0.9975 0 0 0 16.117187,2.9726563 L 12.681641,4.9570312 6.5742187,1.4296875 A 0.9975,0.9975 0 0 0 5.8164062,1.3300781 Z"
       id="path3" />
    <path
       d="M 8.6250001,-0.34179685 C 7.5826489,0.22694199 6.5600821,0.83569927 5.53125,1.4296875 5.2230871,1.6079638 5.0332853,1.9369537 5.0332031,2.2929688 V 9.921875 c -6.156e-4,0.356713 0.1892796,0.686609 0.4980469,0.865234 l 6.607422,3.814454 c 0.308772,0.178376 0.689275,0.178376 0.998047,0 0.98074,-0.562313 1.957707,-1.131397 2.931641,-1.705081 0.219018,-1.529596 0.979158,-5.3074726 1.681353,-9.9024842 C 14.453454,1.7108754 8.6786749,-0.32935744 8.6250001,-0.34179685 Z m 0.1914062,2.17968745 6.7109377,2.4414063 -1.265625,7.3691411 -1.625,0.9375 L 7.0273437,9.3476563 V 2.8691406 Z"
       id="path4"
        />
    <path
       d="M 5.2339143,-5.5311742 C 4.5286432,-5.8130884 3.7418228,-5.3805799 3.599962,-4.6330044 L 0.5975894,11.67673 c -0.1084115,0.569208 0.2009164,1.135574 0.7377613,1.350809 l 15.9446313,6.391465 c 0.705271,0.281915 1.492092,-0.150594 1.633953,-0.89817 L 22.103807,1.7423504 C 22.212219,1.1731416 21.902891,0.60677492 21.366045,0.39154022 Z M 5.6973798,-2.7395003 19.542924,2.2684554 16.816517,16.62496 3.1561086,11.148255 Z"
        />
   </g>
</svg>
