<?xml version="1.0" encoding="UTF-8" standalone="no"?>
<svg width="12.3" viewBox="0 0 18.45 13.3" version="1.1" height="13.3" xmlns="http://www.w3.org/2000/svg">
   <g class="jp-icon3" fill="#616161" transform="translate(0.75038755,0.49961028)">
      <path
         d="M 8.4746094,-3.0742188 A 0.97509752,0.97509752 0 0 0 7.6035156,-2.5371094 L 0.10351562,12.462891 A 0.97509752,0.97509752 0 0 0 0,12.900391 c 0,0 0.01804825,0.240769 0.07226562,0.392578 C 0.126483,13.444777 0.21694,13.605641 0.34375,13.757813 0.59736999,14.062156 0.9779784,14.325566 1.5507812,14.554688 2.696387,15.01293 4.6596132,15.375 8.4746094,15.375 c 3.8149966,0 5.7801756,-0.36207 6.9257816,-0.820312 0.572802,-0.229122 0.953411,-0.492532 1.207031,-0.796875 0.12681,-0.152172 0.217267,-0.313036 0.271484,-0.464844 0.05422,-0.151809 0.07031,-0.392578 0.07031,-0.392578 a 0.97509752,0.97509752 0 0 0 -0.101563,-0.4375 L 9.3476563,-2.5371094 A 0.97509752,0.97509752 0 0 0 8.4746094,-3.0742188 Z M 8.4765625,0.08007812 14.779297,12.6875 c -0.05791,0.02963 -0.01621,0.02172 -0.103516,0.05664 -0.729392,0.291757 -2.516175,0.68164 -6.2011716,0.68164 -3.6849963,0 -5.4698264,-0.389883 -6.1992188,-0.68164 C 2.1880816,12.70922 2.2297876,12.71713 2.171875,12.6875 Z" />
   </g>
</svg>
