<?xml version="1.0" encoding="UTF-8" standalone="no"?>
<svg
   width="14.3"
   viewBox="0 0 21.45 14.3"
   version="1.1"
   height="14.3"
   xmlns="http://www.w3.org/2000/svg">
  <g class="jp-icon3" fill="#616161" transform="translate(1.1166014,0.20859301)">
    <path
       d="m 8.1933594,-3.4921875 a 0.92962298,0.92962298 0 0 0 -0.65625,0.2714844 L 4.7070312,-0.390625 a 0.92962298,0.92962298 0 0 0 0.65625,1.5878906 H 11.023438 A 0.92962298,0.92962298 0 0 0 11.681641,0.92382813 L 14.511719,-1.90625 a 0.92962298,0.92962298 0 0 0 -0.65625,-1.5859375 z m 0.3847656,1.859375 h 3.03125 l -0.970703,0.97070313 H 7.6074219 Z"/>
    <path
       d="m 8.1933594,12.685547 a 0.92962298,0.92962298 0 0 0 -0.65625,0.273437 l -2.8300782,2.830079 a 0.92962298,0.92962298 0 0 0 0.65625,1.585937 h 5.6601568 a 0.92962298,0.92962298 0 0 0 0.658203,-0.271484 l 2.830078,-2.830078 a 0.92962298,0.92962298 0 0 0 -0.65625,-1.587891 z m 0.3867187,1.859375 h 3.0292969 l -0.970703,0.970703 H 7.609375 Z"/>
    <path
       d="M 19.46875,1.8378906 A 0.92962298,0.92962298 0 0 0 18.455078,2.0390625 L 15.625,4.8691406 a 0.92962298,0.92962298 0 0 0 -0.271484,0.65625 V 11.1875 a 0.92962298,0.92962298 0 0 0 1.585937,0.65625 l 2.830078,-2.8300781 a 0.92962298,0.92962298 0 0 0 0.273438,-0.65625 V 2.6953125 A 0.92962298,0.92962298 0 0 0 19.46875,1.8378906 Z M 18.183594,4.9414062 V 7.9707031 L 17.212891,8.9414063 V 5.9121094 Z"/>
    <path
       d="M 3.2910156,1.8378906 A 0.92962298,0.92962298 0 0 0 2.2773438,2.0390625 l -2.83007817,2.8300781 a 0.92962298,0.92962298 0 0 0 -0.27343751,0.65625 V 11.1875 a 0.92962298,0.92962298 0 0 0 1.58789063,0.65625 L 3.5917969,9.0136719 a 0.92962298,0.92962298 0 0 0 0.2714844,-0.65625 V 2.6953125 A 0.92962298,0.92962298 0 0 0 3.2910156,1.8378906 Z M 2.0058594,4.9394531 v 3.03125 L 1.0332031,8.9433594 v -3.03125 z"/>
    <path
       d="M 8.1933594,1.765625 A 0.92962298,0.92962298 0 0 0 7.2636719,2.6953125 V 5.5253906 A 0.92953002,0.92953002 0 0 0 8.1933594,6.4550781 0.92953002,0.92953002 0 0 0 9.1230469,5.5253906 V 3.625 h 3.8027341 v 3.8027344 h -1.902343 a 0.92953002,0.92953002 0 0 0 -0.929688,0.9296875 0.92953002,0.92953002 0 0 0 0.929688,0.9296875 h 2.832031 A 0.92962298,0.92962298 0 0 0 14.783203,8.3574219 V 2.6953125 A 0.92962298,0.92962298 0 0 0 13.855469,1.765625 Z"/>
    <path
       d="M 5.3632812,4.5976562 A 0.92962298,0.92962298 0 0 0 4.4335937,5.5253906 V 11.1875 a 0.92962298,0.92962298 0 0 0 0.9296875,0.929688 H 11.023438 A 0.92962298,0.92962298 0 0 0 11.953125,11.1875 V 5.5253906 A 0.92962298,0.92962298 0 0 0 11.023438,4.5976562 Z M 6.2929687,6.4550781 H 10.09375 V 10.257813 H 6.2929687 Z"/>
  </g>
</svg>
