<?xml version="1.0" encoding="UTF-8" standalone="no"?>
<svg
   width="14.3"
   viewBox="0 0 21.45 14.3"
   version="1.1"
   height="14.3"
   xmlns="http://www.w3.org/2000/svg">
  <g class="jp-icon3" fill="#616161">
   <path
      d="m 5.1523437,0.31640625 c -0.00131,0.001298 -0.00261,0.0026 -0.00391,0.003906 h -3.43359 C 1.1766933,0.32058161 0.74050356,0.75677152 0.74023437,1.2949219 V 16.210937 c 2.6899e-4,0.538151 0.43645883,0.974341 0.97460933,0.97461 H 16.574219 c 0.53815,-2.7e-4 0.97434,-0.43646 0.974609,-0.97461 v -3.527343 c -0.03739,-0.267121 -0.183757,-0.506823 -0.404297,-0.66211 l 0.394531,0.611329 c -0.156559,-3.3353437 -1.57375,-6.5223534 -3.871093,-8.8144536 -6.66e-4,-6.51e-4 -0.0013,-0.0013 -0.002,-0.00195 C 11.381408,1.5548042 8.3211488,0.27858118 5.1738281,0.3203125 c -6.485e-4,8.6e-6 -0.0013,-8.71e-6 -0.00195,0 -0.00674,9.047e-5 -0.012795,-0.004009 -0.019531,-0.003906 z M 5.1816406,2.265625 v 0.00195 c 2.6074513,-0.039706 5.1795204,1.0231917 7.1113284,2.9355469 1.936348,1.9335244 3.16369,4.6841259 3.296875,7.5214841 0.0064,0.564684 0.0065,0.369792 0.0098,0.554688 v 1.957031 H 2.6894531 V 2.2695313 h 2.484375 c 0.00261,-0.00129 0.00521,-0.0026 0.00781,-0.00391 z"
      />
   <path
      d="m 4.8828125,-2.8847656 a 0.97509752,0.97509752 0 0 0 -0.9414062,1.2539062 l 0.00586,0.021484 a 0.97500002,0.97500002 0 0 0 0.9570313,0.62695312 l -0.035156,0.046875 3.4863282,0.0273438 a 0.97509752,0.97509752 0 0 0 0.025391,-0.009766 l -0.00391,0.009766 c 2.6127999,-0.0397866 5.1423829,0.99157809 7.0742189,2.90234373 1.937891,1.9334685 3.173428,4.6957347 3.30664,7.5332032 a 0.97509752,0.97509752 0 0 0 0.002,0.00195 v 3.4746091 a 0.97500002,0.97500002 0 0 0 0.976562,0.976563 0.97500002,0.97500002 0 0 0 0.974609,-0.976563 V 9.4765625 a 0.97509752,0.97509752 0 0 0 -0.03711,-0.050781 l 0.0332,0.00977 C 20.550382,6.0988535 19.127635,2.9055945 16.830078,0.61328125 a 0.97509752,0.97509752 0 0 0 -0.0039,-0.001953 C 14.542021,-1.6498218 11.509562,-2.8972038 8.3691406,-2.8554688 l 0.00195,-0.00195 h -0.013672 c -0.00338,4.85e-5 -0.00639,-0.002 -0.00977,-0.00195 a 0.97509752,0.97509752 0 0 0 -0.00195,0.00195 z"
      />
   <path
      d="m 4.7871094,-2.875 a 0.97500002,0.97500002 0 0 0 -0.6855469,0.296875 l -3.0820313,3.1875 a 0.97500002,0.97500002 0 0 0 0.021484,1.3789062 0.97500002,0.97500002 0 0 0 1.3789063,-0.023437 L 5.5039062,-1.2226562 A 0.97500002,0.97500002 0 0 0 5.4804687,-2.6015625 0.97500002,0.97500002 0 0 0 4.7871094,-2.875 Z"
      />
   <path
      d="m 10.542969,-2.5097656 a 0.97500002,0.97500002 0 0 0 -1.3789065,0.021484 L 6.0820312,0.69921875 A 0.97500002,0.97500002 0 0 0 6.1054687,2.078125 0.97500002,0.97500002 0 0 0 7.4824219,2.0566406 l 3.0839841,-3.1875 a 0.97500002,0.97500002 0 0 0 -0.02344,-1.3789062 z"
      />
   <path
      d="m 19.576172,7.2675781 a 0.97500002,0.97500002 0 0 0 -0.685547,0.296875 l -3.082031,3.1894529 a 0.97500002,0.97500002 0 0 0 0.02344,1.376953 0.97500002,0.97500002 0 0 0 1.376953,-0.02148 l 3.083985,-3.1875 A 0.97500002,0.97500002 0 0 0 20.269531,7.5429687 0.97500002,0.97500002 0 0 0 19.576172,7.2675781 Z"
      />
   <path
      d="m 20.40625,12.310547 a 0.97500002,0.97500002 0 0 0 -1.378906,0.02148 l -3.082031,3.1875 a 0.97500002,0.97500002 0 0 0 0.02344,1.378906 0.97500002,0.97500002 0 0 0 1.376953,-0.02148 l 3.083984,-3.1875 a 0.97500002,0.97500002 0 0 0 -0.02344,-1.378906 z"
      />
   </g>
</svg>
