<?xml version="1.0" encoding="UTF-8" standalone="no"?>
<svg width="14.3" viewBox="0 0 21.45 14.3" version="1.1" height="14.3" xmlns="http://www.w3.org/2000/svg">
  <g class="jp-icon3"
      fill="none"
      transform="translate(-0.00320035,0.05091134)"
      stroke="#616161"
      stroke-width="1.95"
      stroke-linecap="round"
      stroke-linejoin="round">
    <path
       d="M 1.7178117,1.2444729 V 16.159512 H 16.577187 v -3.527344 l -0.0098,-0.005 C 16.42248,9.5400716 15.10019,6.5712356 12.982464,4.4583431 10.871574,2.3687094 8.0516047,1.1973949 5.1703177,1.2412703 l 0.0075,0.00321 z" />
    <path
       d="M 19.738589,12.953664 V 9.4263193 l -0.0028,0.0039 c -0.144931,-3.087084 -1.474149,-6.064789 -3.591875,-8.177682 -2.11089,-2.08963398 -4.897034,-3.231375 -7.7783207,-3.1875 l 5.52e-4,6.67e-4 -3.4868834,-0.02704 v 0 l 0.00635,0.02128" />
    <path
       d="M 1.7229974,1.235833 4.806166,-1.9517499" />
    <path
       d="M 6.7856796,1.3270769 9.8688482,-1.860506" />
    <path
       d="M 16.512184,11.379909 19.595353,8.1923268" />
    <path
       d="m 16.648923,16.147361 3.083169,-3.187584" />
  </g>
</svg>
