<?xml version="1.0" encoding="UTF-8"?>
<svg width="190.03" height="190.01" preserveAspectRatio="xMidYMid slice" version="1.1" viewBox="-300 -225 190.03 190.01" xmlns="http://www.w3.org/2000/svg">
 <path class="jp-icon-selectable jcad-main-logo" d="m-210.76-223.82a94 94 0 0 0-38.453 10.877 94 94 0 0 0-38.719 127.17 94 94 0 0 0 127.17 38.719 94 94 0 0 0 38.719-127.17 94 94 0 0 0-88.719-49.596zm8.5918 17.875 3.7832 0.23438 0.39258 1.2402 0.32813 1.2383 0.25976 1.2324 0.17774 1.2266 0.0723 1.2148 2.418 0.31445 2.4043 0.39844 0.42187-1.1406 0.52539-1.123 0.60352-1.1055 0.67383-1.0879 0.73437-1.0742 3.6895 0.87109 0.17773 1.2891 0.11328 1.2754 0.0469 1.2578-0.0312 1.2383-0.13282 1.2109 2.3281 0.71875 2.3027 0.79883 0.60938-1.0527 0.70703-1.0176 0.78125-0.98828 0.84766-0.95898 0.90625-0.9336 3.4883 1.4824-0.043 1.2988-0.10156 1.2774-0.16797 1.248-0.24024 1.2148-0.33593 1.1719 2.1738 1.1016 2.1348 1.1758 0.77734-0.93555 0.86914-0.88281 0.93946-0.83985 0.99609-0.80468 1.0508-0.76563 3.1875 2.0488-0.26172 1.2754-0.3164 1.2402-0.375 1.2012-0.44336 1.1582-0.5293 1.0977 1.957 1.4531 1.9043 1.5195 0.92578-0.79101 1.0059-0.72266 1.0664-0.66992 1.1191-0.62305 1.1641-0.57813 2.7969 2.5586-0.47461 1.2109-0.52148 1.1699-0.57422 1.1211-0.63086 1.0664-0.70703 0.99218 1.6836 1.7617 1.6191 1.8223 1.0469-0.62305 1.1133-0.54297 1.1641-0.48047 1.209-0.42578 1.2461-0.37305 2.3223 2.9941-0.67188 1.1152-0.71094 1.0644-0.75586 1.0078-0.80273 0.94336-0.86328 0.85938 1.3594 2.0215 1.2891 2.0684 1.1367-0.4375 1.1895-0.34765 1.2285-0.27539 1.2617-0.21485 1.293-0.1582 1.7832 3.3457-0.85156 0.98438-0.88086 0.92773-0.91406 0.86719-0.95117 0.79297-0.9961 0.70117 0.99805 2.2227 0.92188 2.2558 1.1934-0.23828 1.2305-0.14062 1.2578-0.0664 1.2812 2e-3 1.2988 0.0645 1.1934 3.5976-1.0039 0.82618-1.0274 0.76562-1.0469 0.69922-1.0723 0.62305-1.0996 0.52148 0.60937 2.3594 0.52539 2.3789 1.2188-0.0332 1.2363 0.0684 1.25 0.15039 1.2617 0.2168 1.2715 0.2832 0.56641 3.7461-1.1309 0.64648-1.1387 0.58203-1.1523 0.51172-1.1602 0.43164-1.1738 0.32812 0.20312 2.4297 0.11524 2.4336 1.207 0.17188 1.207 0.27734 1.207 0.35742 1.207 0.42969 1.2031 0.49219-0.0742 3.7891-1.2227 0.44531-1.2207 0.38086-1.2207 0.31055-1.2188 0.22851-1.2109 0.12501-0.21094 2.4277-0.29687 2.4199 1.1582 0.37305 1.1445 0.47656 1.1289 0.5586 1.1172 0.62499 1.1035 0.68946-0.71289 3.7226-1.2812 0.23047-1.2695 0.16992-1.2559 0.0996-1.2383 0.0195-1.2148-0.0801-0.61914 2.3555-0.70117 2.334 1.0801 0.56445 1.0449 0.66407 1.0195 0.74023 0.9961 0.80469 0.9707 0.86719-1.332 3.5469-1.3008 0.0137-1.2793-0.0488-1.2559-0.11523-1.2227-0.1875-1.1855-0.28711-1.0078 2.2188-1.0859 2.1836 0.96875 0.73828 0.91992 0.83008 0.87891 0.90234 0.84375 0.96094 0.8125 1.0176-1.9141 3.2715-1.2832-0.20703-1.2539-0.26367-1.2168-0.32422-1.1738-0.39453-1.1191-0.48047-1.3691 2.0156-1.4375 1.9668 0.82812 0.89258 0.76563 0.97461 0.71484 1.0371 0.66992 1.0898 0.62695 1.1406-2.4375 2.9023-1.2305-0.42187-1.1914-0.47266-1.1445-0.52539-1.0918-0.58594-1.0195-0.66406-1.6914 1.7559-1.75 1.6953 0.66797 1.0195 0.58984 1.0898 0.5293 1.1426 0.47461 1.1895 0.42578 1.2285-2.8926 2.4492-1.1426-0.625-1.0938-0.66602-1.0391-0.71094-0.97656-0.76172-0.89454-0.82812-1.9629 1.4453-2.0117 1.375 0.48632 1.1172 0.39649 1.1738 0.32812 1.2168 0.26758 1.252 0.21289 1.2832-3.2656 1.9238-1.0195-0.80859-0.9668-0.83984-0.9043-0.87695-0.83203-0.91602-0.74219-0.9668-2.1797 1.0918-2.2148 1.0156 0.28906 1.1836 0.19336 1.2246 0.11914 1.2539 0.0527 1.2793-8e-3 1.3008-3.5449 1.3438-0.86915-0.96875-0.80859-0.99219-0.74219-1.0176-0.66796-1.043-0.5684-1.0781-2.3301 0.70898-2.3555 0.62695 0.0859 1.2148-0.0176 1.2383-0.0957 1.2559-0.16406 1.2695-0.22852 1.2812-3.7188 0.72656-0.69336-1.1016-0.6289-1.1152-0.56055-1.127-0.48047-1.1426-0.3789-1.1582-2.418 0.30469-2.4258 0.2207-0.12305 1.2109-0.22461 1.2188-0.30664 1.2207-0.37695 1.2246-0.43946 1.2246-3.791 0.08594-0.49609-1.2031-0.43165-1.2051-0.36132-1.207-0.28125-1.2051-0.17774-1.2051-2.4336-0.10938-2.4297-0.19336-0.32422 1.1738-0.42773 1.1621-0.50781 1.1523-0.57813 1.1426-0.64258 1.1328-3.75-0.55469-0.28515-1.2695-0.22266-1.2617-0.15234-1.25-0.0723-1.2363 0.0293-1.2168-2.3809-0.51953-2.3633-0.60156-0.51758 1.1016-0.61914 1.0742-0.69532 1.0508-0.76171 1.0273-0.82422 1.0078-3.6016-1.1816-0.0684-1.2988-6e-3 -1.2793 0.0605-1.2598 0.13868-1.2305 0.23437-1.1953-2.2598-0.91406-2.2266-0.99024-0.69531 0.99805-0.79102 0.95312-0.86328 0.91797-0.92578 0.88476-0.98242 0.85352-3.3516-1.7734 0.15429-1.291 0.21094-1.2637 0.27149-1.2285 0.34375-1.1914 0.43359-1.1387-2.0723-1.2812-2.0273-1.3535-0.85547 0.86719-0.94141 0.80469-1.0058 0.75781-1.0606 0.7168-1.1133 0.67578-3.002-2.3145 0.36914-1.248 0.42188-1.209 0.47656-1.166 0.53906-1.1152 0.61914-1.0469-1.8262-1.6152-1.7676-1.6758-0.99023 0.70898-1.0644 0.63477-1.1191 0.57813-1.168 0.52539-1.209 0.47852-2.5684-2.7871 0.57421-1.168 0.61914-1.1211 0.66602-1.0684 0.7207-1.0078 0.78711-0.92969-1.5254-1.8984-1.4609-1.9512-1.0957 0.53125-1.1543 0.44726-1.2012 0.37891-1.2402 0.32226-1.2734 0.26562-2.0606-3.1816 0.76368-1.0527 0.80078-1 0.83593-0.94141 0.88086-0.87109 0.9336-0.7832-1.1836-2.1289-1.1094-2.1699-1.1699 0.33789-1.2148 0.24609-1.2461 0.17188-1.2774 0.10547-1.2988 0.04687-1.4941-3.4824 0.93164-0.91016 0.95703-0.84961 0.98438-0.78515 1.0137-0.71094 1.0527-0.61328-0.80664-2.2988-0.72657-2.3262-1.2109 0.13672-1.2383 0.0351-1.2578-0.041-1.2754-0.11133-1.2891-0.17383-0.88477-3.6856 1.0723-0.73828 1.0859-0.67578 1.1035-0.60937 1.1211-0.52735 1.1406-0.42773-0.40625-2.4024-0.32422-2.416-1.2148-0.0684-1.2266-0.17383-1.2344-0.25586-1.2383-0.32422-1.2422-0.38867-0.24609-3.7812 1.1797-0.54687 1.1856-0.48242 1.1914-0.41406 1.1934-0.33203 1.1953-0.22657 6e-3 -2.4375 0.0899-2.4355-1.1856-0.27344-1.1797-0.37891-1.1738-0.45898-1.166-0.5293-1.1582-0.5918 0.39453-3.7695 1.2578-0.33984 1.25-0.27539 1.2422-0.20703 1.2324-0.125 1.2168-0.0215 0.41797-2.4023 0.5-2.3848-1.123-0.4707-1.0977-0.57227-1.0801-0.65039-1.0586-0.71875-1.041-0.77929 1.0254-3.6484 1.2969-0.12305 1.2773-0.0605 1.2598 8e-3 1.2363 0.084 1.2031 0.1836 0.81836-2.2949 0.89648-2.2676-1.0293-0.65235-0.98438-0.75-0.95312-0.82422-0.92383-0.88672-0.89453-0.94531 1.6289-3.4219 1.2969 0.0977 1.2715 0.15625 1.2402 0.22071 1.2031 0.29297 1.1562 0.38476 1.1914-2.125 1.2676-2.082-0.90235-0.81836-0.8457-0.90625-0.79883-0.97266-0.75976-1.0312-0.72266-1.082 2.1836-3.0976 1.2617 0.3164 1.2266 0.36914 1.1855 0.42578 1.1367 0.49219 1.0742 0.57422 1.5352-1.8926 1.5996-1.8379-0.75196-0.95898-0.67969-1.0352-0.62304-1.0957-0.57618-1.1426-0.52734-1.1894 2.6758-2.6836 1.1894 0.52343 1.1465 0.57227 1.0957 0.61914 1.0371 0.67773 0.96094 0.74805 1.834-1.6074 1.8867-1.541-0.5781-1.0723-0.49414-1.1348-0.42969-1.1836-0.375-1.2246-0.32031-1.2617 3.0918-2.1934 1.084 0.71875 1.0332 0.75586 0.97657 0.79687 0.9082 0.8418 0.82031 0.90039 2.0781-1.2734 2.1211-1.1992-0.38867-1.1543-0.29688-1.2031-0.22266-1.2402-0.16211-1.2695-0.10156-1.2969 3.418-1.6406 0.94727 0.89258 0.89062 0.91992 0.82617 0.94922 0.75196 0.98438 0.6582 1.0254 2.2637-0.9043 2.293-0.82422-0.1875-1.2031-0.0898-1.2363-0.0117-1.2598 0.0566-1.2773 0.11914-1.2969 3.6445-1.0391 0.7832 1.0391 0.72266 1.0586 0.6543 1.0762 0.57619 1.0957 0.47461 1.1211 2.3828-0.50782 2.4004-0.42383 0.0176-1.2188 0.12109-1.2324 0.20117-1.2441 0.27149-1.25 0.33594-1.2578 3.7676-0.4082 0.59766 1.1562 0.5332 1.1641 0.46289 1.1719 0.38086 1.1797 0.2793 1.1856 2.4336-0.0996 2.4375-0.0117 0.22461-1.1973 0.32813-1.1953 0.4082-1.1914 0.47851-1.1875z" fill="#4584b6"/>
 <path class="jp-icon-selectable jcad-main-logo" d="m-200.32-159.63-0.48828 0.67188-0.43164 0.68554-0.37304 0.69727-0.29883 0.70703-0.19922 0.7207-0.25195 2.2969-2.7578-0.14453-2.7578 0.17578-0.27734-2.2949-0.20703-0.71875-0.3086-0.70313-0.3789-0.6914-0.43945-0.67969-0.4961-0.66797-3.6543 0.85547-0.14844 0.81836-0.0918 0.80469-0.0332 0.78906 0.0371 0.76758 0.13282 0.73437 0.76953 2.1797-2.5469 1.0664-2.4082 1.3535-1.2461-1.9453-0.49805-0.5586-0.58203-0.5-0.64258-0.45898-0.69141-0.42187-0.73632-0.38477-2.9219 2.3554 0.22266 0.80078 0.26562 0.76563 0.3125 0.72461 0.36719 0.67578 0.43945 0.60352 1.6387 1.6308-1.832 2.0664-1.582 2.2637-1.9688-1.2129-0.68945-0.28515-0.74219-0.19922-0.77734-0.13477-0.80664-0.0801-0.83008-0.0273-1.6094 3.3906 0.54688 0.625 0.57226 0.57423 0.5957 0.51757 0.62305 0.44922 0.6582 0.35352 2.1836 0.75781-0.75391 2.6582-0.44336 2.7246-2.2988-0.23828-0.74609 0.041-0.75586 0.14453-0.75781 0.21484-0.76172 0.2793-0.75977 0.33398 0.0215 3.7539 0.76367 0.32617 0.76367 0.26758 0.76172 0.20703 0.75586 0.13672 0.74609 0.0332 2.2969-0.26562 0.47461 2.7207 0.7832 2.6484-2.1758 0.7832-0.6543 0.35938-0.61718 0.45898-0.58985 0.52344-0.56445 0.58008-0.54102 0.63086 1.6484 3.373 0.83008-0.0371 0.80469-0.0898 0.77539-0.14453 0.74023-0.20508 0.6875-0.29492 1.9531-1.2344 1.6074 2.2461 1.8555 2.0469-1.6211 1.6484-0.43164 0.60742-0.35742 0.67969-0.30469 0.72852-0.25781 0.76757-0.21289 0.80274 2.9492 2.3242 0.73047-0.39453 0.68554-0.42774 0.63672-0.4668 0.57813-0.50781 0.49023-0.5625 1.2246-1.9609 2.4238 1.3262 2.5586 1.0391-0.74414 2.1894-0.125 0.73438-0.0273 0.76953 0.041 0.78711 0.10157 0.80469 0.15625 0.81445 3.6641 0.81445 0.48828-0.67187 0.43164-0.68555 0.37305-0.69531 0.29883-0.70703 0.19922-0.72071 0.25195-2.2969 2.7578 0.14258 2.7578-0.17383 0.27735 2.2949 0.20703 0.7168 0.30859 0.70312 0.37891 0.69336 0.43946 0.67968 0.49609 0.66602 3.6543-0.85547 0.14844-0.8164 0.0918-0.80469 0.0332-0.78906-0.0371-0.76758-0.13281-0.73438-0.76953-2.1797 2.5469-1.0684 2.4082-1.3535 1.2461 1.9473 0.49805 0.55664 0.58203 0.5 0.64258 0.45898 0.6914 0.42188 0.73633 0.38672 2.9219-2.3574-0.22266-0.80078-0.26563-0.76562-0.3125-0.72266-0.36718-0.67578-0.43946-0.60547-1.6387-1.6289 1.832-2.0684 1.582-2.2637 1.9688 1.2129 0.68946 0.28711 0.74219 0.19727 0.77734 0.13476 0.80664 0.0801 0.83008 0.0293 1.6094-3.3926-0.54687-0.625-0.57226-0.57422-0.59571-0.51562-0.62304-0.45118-0.65821-0.35351-2.1836-0.75781 0.7539-2.6562 0.44336-2.7266 2.2988 0.23828 0.7461-0.041 0.7539-0.14258 0.75977-0.2168 0.76172-0.27734 0.75976-0.33398-0.0215-3.7539-0.76367-0.32617-0.76368-0.26953-0.76171-0.20704-0.75586-0.13476-0.7461-0.0332-2.2969 0.26562-0.47461-2.7226-0.78321-2.6484 2.1758-0.78125 0.65429-0.36133 0.61719-0.45703 0.58984-0.52344 0.56446-0.58008 0.54101-0.63086-1.6484-3.375-0.83007 0.0391-0.80469 0.0899-0.77539 0.14257-0.74024 0.20704-0.6875 0.29296-1.9531 1.2363-1.6074-2.2461-1.8555-2.0469 1.6191-1.6484 0.43359-0.60938 0.35742-0.67969 0.30469-0.72851 0.25781-0.76758 0.21289-0.80273-2.9492-2.3242-0.73047 0.39453-0.68555 0.42969-0.63867 0.46679-0.57617 0.50586-0.49219 0.5625-1.2227 1.9609-2.4238-1.3262-2.5586-1.0391 0.74414-2.1875 0.125-0.73633 0.0274-0.76758-0.041-0.78906-0.10156-0.80274-0.15625-0.8164zm-4.3848 21.641a8 8 0 0 1 5.9453 2.9707 8 8 0 0 1-1.2031 11.25 8 8 0 0 1-11.25-1.2031 8 8 0 0 1 1.2031-11.25 8 8 0 0 1 5.3047-1.7676z" fill="#ffde57"/>
 <path class="jp-icon-selectable jcad-main-logo" d="m-152.75-159.38-0.43359 0.625-0.37891 0.63477-0.31836 0.64453-0.24609 0.65234-0.14844 0.65821-0.13086 2.6699-2.709 0.0703-2.666 0.47656-0.66601-2.5898-0.27735-0.61524-0.37304-0.58789-0.44141-0.56836-0.49805-0.54687-0.55078-0.52539-3.4688 1.4141-0.0273 0.75977 0.0254 0.74023 0.082 0.71485 0.14453 0.68164 0.23242 0.63281 1.332 2.3184-2.2402 1.5215-1.9863 1.8438-1.959-1.8184-0.56641-0.36914-0.63281-0.29297-0.67773-0.23828-0.71485-0.1914-0.74805-0.14454-2.1523 3.0645 0.38871 0.65427 0.41993 0.60937 0.45508 0.55664 0.49023 0.4961 0.53711 0.40625 2.375 1.2305-1.0606 2.4922-0.67578 2.623-2.6309-0.4707-0.67578-4e-3 -0.69141 0.0957-0.69921 0.16601-0.70313 0.22656-0.70703 0.28125-0.15625 3.7422 0.68164 0.33984 0.68359 0.28516 0.68164 0.22266 0.68165 0.15234 0.67187 0.0527 2.6621-0.25 0.45508 2.6699 0.84961 2.5723-2.4668 1.0274-0.57031 0.36133-0.5293 0.45312-0.5 0.51758-0.46875 0.57226-0.44336 0.61915 1.8926 3.2324 0.75781-0.082 0.72852-0.13086 0.69531-0.18164 0.6543-0.24024 0.59375-0.32031 2.1035-1.6484 1.8262 2 2.1074 1.7051-1.5215 2.1992-0.2832 0.61133-0.20117 0.66797-0.14063 0.70507-0.0859 0.73438-0.0371 0.76172 3.3398 1.6953 0.5918-0.47852 0.54296-0.5039 0.48633-0.5293 0.42188-0.55469 0.32617-0.58984 0.87891-2.5254 2.6172 0.69531 2.6934 0.29492-0.0898 2.6719 0.0918 0.66797 0.1914 0.66992 0.26367 0.66992 0.32423 0.66406 0.38081 0.66018 3.7266-0.3789 0.24024-0.72266 0.18359-0.7168 0.12305-0.70703 0.0547-0.69531-0.0449-0.67383-0.625-2.5996 2.5781-0.83007 2.4238-1.207 1.3691 2.2969 0.4375 0.51172 0.52539 0.45898 0.58203 0.42188 0.63281 0.38281 0.67773 0.34961 2.9277-2.332-0.1875-0.73828-0.23242-0.70313-0.2793-0.66211-0.33008-0.61328-0.40234-0.54297-1.9316-1.8476 1.7207-2.0918 1.3867-2.3281 2.3926 1.1914 0.64648 0.19531 0.68945 0.10352 0.7168 0.0371 0.74024-0.0176 0.75781-0.0723 1.2051-3.5469-0.5586-0.51758-0.57617-0.4668-0.5918-0.40625-0.60937-0.33789-0.63086-0.23828-2.625-0.51172 0.31641-2.6894-0.0918-2.707 2.6582-0.29102 0.64844-0.18554 0.63477-0.28711 0.625-0.35547 0.61132-0.41602 0.59961-0.4707-0.90429-3.6328-0.75-0.13477-0.73633-0.0801-0.71875-0.0215-0.69531 0.0449-0.66016 0.14063-2.4824 0.98828-1.1895-2.4336-1.541-2.2285 2.0781-1.6816 0.44532-0.50586 0.38086-0.58399 0.33203-0.63671 0.29101-0.68165 0.25-0.7207-2.7266-2.5664-0.70312 0.29101-0.66211 0.33008-0.61719 0.37109-0.56055 0.41406-0.47851 0.47461-1.5547 2.1758-2.3164-1.4062-2.5-1.041 0.83985-2.5371 0.0996-0.66797 4e-3 -0.69727-0.0644-0.71679-0.12305-0.72852-0.17969-0.74023zm-2.4629 21.865a2 2 0 0 1 1.6426 0.98828 2 2 0 0 1-0.71484 2.7363 2 2 0 0 1-2.7363-0.71485 2 2 0 0 1 0.71484-2.7383 2 2 0 0 1 1.0938-0.27148z" fill="#597083"/>
 <path class="jp-icon-selectable jcad-main-logo" d="m-232.88-194.22-3.7441 0.0234-0.30859 0.69531-0.25195 0.69727-0.18946 0.69336-0.11914 0.68554-0.0195 0.67578 0.375 2.6465-2.6445 0.58203-2.5293 0.9707-1.1445-2.416-0.38672-0.55274-0.47851-0.50586-0.54102-0.47461-0.59375-0.44335-0.64062-0.41016-3.1367 2.043 0.11719 0.75195 0.16406 0.72266 0.21484 0.68554 0.27149 0.64258 0.34765 0.57813 1.748 2.0234-1.9121 1.918-1.6016 2.1856-2.2695-1.4141-0.625-0.25586-0.67578-0.16797-0.71094-0.10547-0.73828-0.0527h-0.76172l-1.5352 3.416 0.50586 0.57031 0.5293 0.51758 0.55078 0.46094 0.57617 0.39258 0.60547 0.29883 2.5625 0.75781-0.57031 2.6484-0.16602 2.7031-2.6719 0.0371-0.66407 0.12305-0.66015 0.22461-0.65625 0.29492-0.64844 0.35547-0.64062 0.41211 0.55468 3.7031 0.73438 0.20508 0.72461 0.15039 0.71289 0.0898 0.69726 0.0195 0.66993-0.0762 2.5664-0.74804 0.95117 2.5352 1.3223 2.3652-2.2285 1.4766-0.49023 0.46289-0.43555 0.54492-0.39062 0.60156-0.35352 0.6504-0.3164 0.69335 2.4688 2.8145 0.72851-0.22267 0.68945-0.26562 0.64844-0.31055 0.59766-0.35937 0.52343-0.42774 1.7539-2.0156 2.1719 1.6172 2.3906 1.2754-1.0781 2.4473-0.1621 0.6543-0.0703 0.69336-4e-3 0.71875 0.0527 0.73828 0.10938 0.7539 3.5976 1.0332 0.49219-0.58203 0.4375-0.59766 0.37891-0.61133 0.30664-0.625 0.20898-0.64062 0.38672-2.6465 2.7012 0.1875 2.6992-0.2207 0.41797 2.6406 0.2168 0.64063 0.3164 0.62109 0.38477 0.60743 0.44336 0.59179 0.5 0.57422 3.5859-1.0762 0.0996-0.75586 0.0449-0.73828-0.0137-0.71875-0.0781-0.69141-0.17188-0.6543-1.1055-2.4336 2.375-1.3027 2.1524-1.6445 1.7773 1.9961 0.52735 0.41992 0.60156 0.35156 0.65234 0.30274 0.69532 0.25781 0.73046 0.21484 2.4336-2.8457-0.32422-0.6875-0.36133-0.64648-0.39844-0.59766-0.4414-0.53906-0.4961-0.45703-2.248-1.4492 1.2949-2.3809 0.91992-2.5469 2.5762 0.7168 0.66992 0.0684 0.69727-0.0293 0.71289-0.0977 0.72266-0.15821 0.73048-0.2148 0.50975-3.709-0.64453-0.40429-0.65429-0.34766-0.65821-0.28711-0.66406-0.21679-0.66406-0.11524-2.6738-4e-3 -0.19922-2.7012-0.60156-2.6406 2.5547-0.78906 0.60156-0.30665 0.57031-0.40039 0.54688-0.46679 0.52148-0.52539 0.49805-0.57422-1.5762-3.3984-0.75976 0.01-0.73828 0.0605-0.70899 0.11524-0.67578 0.17578-0.62109 0.26367-2.252 1.4414-1.627-2.166-1.9355-1.8965 1.7226-2.043 0.3418-0.58399 0.26367-0.64453 0.20508-0.68945 0.15625-0.72266 0.10937-0.7539-3.1621-2.0059-0.63671 0.41992-0.5879 0.44922-0.53515 0.48047-0.4707 0.51367-0.38086 0.55664-1.1152 2.4297-2.541-0.94141-2.6524-0.54883 0.34375-2.6504-0.0273-0.67578-0.12695-0.68555-0.19922-0.68945-0.25977-0.69336zm-1.7402 21.938a2 2 0 0 1 1.9277 1.4258 2 2 0 0 1-1.3398 2.4902 2 2 0 0 1-2.4902-1.3398 2 2 0 0 1 1.3398-2.4902 2 2 0 0 1 0.5625-0.0859z" fill="#646464"/>
 <path class="jp-icon-selectable jcad-main-logo" d="m-227.89-108.04-3.6719 0.73047-0.17188 0.74218-0.11523 0.73243-0.0547 0.71679 0.0117 0.69532 0.10937 0.66797 0.86914 2.5273-2.4883 1.0703-2.2988 1.4336-1.5801-2.1563-0.48633-0.46874-0.56445-0.40821-0.6211-0.36133-0.66601-0.32226-0.70703-0.2832-2.6934 2.5996 0.25781 0.7168 0.29883 0.67773 0.33984 0.63281 0.38672 0.57812 0.45117 0.50195 2.0996 1.6562-1.5137 2.248-1.1602 2.4473-2.4941-0.95898-0.66211-0.13281-0.69726-0.03711-0.7168 0.03125-0.73438 0.08789-0.74804 0.14453-0.86133 3.6445 0.60352 0.46289 0.61718 0.4082 0.62891 0.34961 0.64062 0.27734 0.6504 0.17773 2.6602 0.25977-0.0586 2.707 0.34765 2.6875-2.6172 0.54102-0.62696 0.24805-0.60742 0.34375-0.58789 0.41406-0.56836 0.47266-0.55273 0.52539 1.2461 3.5312 0.75977 0.0625 0.74023 0.0098 0.7168-0.04688 0.6875-0.11133 0.64453-0.20117 2.3789-1.2207 1.4141 2.3086 1.7461 2.0723-1.9102 1.8711-0.39453 0.54688-0.32226 0.61914-0.27149 0.66406-0.22461 0.70508-0.17968 0.74024 2.957 2.2969 0.67383-0.35547 0.62695-0.39258 0.57812-0.42774 0.51953-0.46484 0.43165-0.51953 1.3418-2.3125 2.4375 1.1797 2.5879 0.79883-0.59375 2.6055-0.0351 0.67383 0.0605 0.69531 0.13282 0.70508 0.19336 0.71484 0.24804 0.7207 3.7305 0.33203 0.37305-0.66406 0.3164-0.66797 0.25391-0.67188 0.18555-0.67188 0.084-0.66992-0.12304-2.6699 2.6894-0.32812 2.6094-0.72656 0.90821 2.5137 0.33398 0.58594 0.42774 0.55078 0.49218 0.52344 0.54883 0.49609 0.59961 0.4707 3.3164-1.7363-0.0449-0.75977-0.0957-0.73438-0.14843-0.70312-0.20899-0.66406-0.29101-0.60938-1.5469-2.1797 2.0859-1.7285 1.8008-2.0234 2.125 1.623 0.59766 0.3125 0.6582 0.23242 0.69726 0.17383 0.72852 0.12109 0.75977 0.07227 1.8516-3.2539-0.44922-0.61524-0.47656-0.56445-0.50586-0.51172-0.53516-0.44726-0.57422-0.35352-2.4785-0.99805 0.81836-2.582 0.42187-2.6758 2.666 0.2168 0.67187-0.06055 0.67774-0.16016 0.67968-0.23047 0.68164-0.29297 0.67579-0.34766-0.20118-3.7402-0.70898-0.27344-0.70898-0.21875-0.70118-0.15625-0.6914-0.08789-0.67383 0.01367-2.627 0.5-0.70508-2.6152-1.0918-2.4785 2.3594-1.2578 0.5332-0.41406 0.48242-0.50195 0.44922-0.5625 0.41211-0.61328 0.38086-0.6582-2.1894-3.0371-0.7461 0.15234-0.71289 0.19922-0.67578 0.24609-0.62695 0.30274-0.5625 0.375-1.9375 1.8398-2.0078-1.8164-2.2578-1.4961 1.3047-2.334 0.22461-0.63672 0.13476-0.68359 0.0723-0.71484 0.0176-0.74024-0.0371-0.75977-3.4844-1.3711-0.54492 0.5332-0.49219 0.55274-0.43359 0.57226-0.36719 0.59375-0.26758 0.61719-0.63672 2.5977-2.6719-0.44336-2.707-0.0371-0.16406-2.668-0.15625-0.65821-0.25391-0.64843-0.32617-0.64063-0.38672-0.63086zm2.7266 21.836a2 2 0 0 1 2.1035 1.8887 2 2 0 0 1-1.8887 2.1055 2 2 0 0 1-2.1055-1.8906 2 2 0 0 1 1.8906-2.1035z" fill="#9f9260"/>
</svg>
