<?xml version="1.0" encoding="UTF-8" standalone="no"?>
<svg
   height="190.0141"
   width="190.02721"
   viewBox="-300 -225 190.02721 190.0141"
   preserveAspectRatio="xMidYMid slice"
   version="1.1"
   id="svg8"
   xmlns="http://www.w3.org/2000/svg"
   xmlns:svg="http://www.w3.org/2000/svg">
  <defs
     id="defs8" />
  <path
     style="fill:#767677;fill-opacity:1;stroke:none;stroke-opacity:1"
     d="m -152.7461,-159.37891 -0.43359,0.625 -0.37891,0.63477 -0.31836,0.64453 -0.24609,0.65234 -0.14844,0.65821 -0.13086,2.66992 -2.70898,0.0703 -2.66602,0.47656 -0.66601,-2.58984 -0.27735,-0.61524 -0.37304,-0.58789 -0.44141,-0.56836 -0.49805,-0.54687 -0.55078,-0.52539 -3.46875,1.41406 -0.0273,0.75977 0.0254,0.74023 0.082,0.71485 0.14453,0.68164 0.23242,0.63281 1.33204,2.31836 -2.24024,1.52148 -1.98633,1.84375 -1.95898,-1.81836 -0.56641,-0.36914 -0.63281,-0.29297 -0.67773,-0.23828 -0.71485,-0.1914 -0.74805,-0.14454 -2.15234,3.06446 0.38871,0.65427 0.41993,0.60937 0.45508,0.55664 0.49023,0.4961 0.53711,0.40625 2.375,1.23047 -1.06055,2.49219 -0.67578,2.62304 -2.63086,-0.4707 -0.67578,-0.004 -0.69141,0.0957 -0.69921,0.16601 -0.70313,0.22656 -0.70703,0.28125 -0.15625,3.74219 0.68164,0.33984 0.68359,0.28516 0.68164,0.22266 0.68165,0.15234 0.67187,0.0527 2.66211,-0.25 0.45508,2.66992 0.84961,2.57226 -2.4668,1.02735 -0.57031,0.36133 -0.5293,0.45312 -0.5,0.51758 -0.46875,0.57226 -0.44336,0.61915 1.89258,3.23242 0.75781,-0.082 0.72852,-0.13086 0.69531,-0.18164 0.6543,-0.24024 0.59375,-0.32031 2.10351,-1.64844 1.82617,2 2.10743,1.70508 -1.52149,2.19922 -0.2832,0.61133 -0.20117,0.66797 -0.14063,0.70507 -0.0859,0.73438 -0.0371,0.76172 3.33984,1.69531 0.5918,-0.47852 0.54296,-0.5039 0.48633,-0.5293 0.42188,-0.55469 0.32617,-0.58984 0.87891,-2.52539 2.61718,0.69531 2.69336,0.29492 -0.0898,2.67188 0.0918,0.66797 0.1914,0.66992 0.26367,0.66992 0.32423,0.66406 0.38081,0.66018 3.72656,-0.3789 0.24024,-0.72266 0.18359,-0.7168 0.12305,-0.70703 0.0547,-0.69531 -0.0449,-0.67383 -0.625,-2.59961 2.57813,-0.83007 2.42383,-1.20704 1.36914,2.29688 0.4375,0.51172 0.52539,0.45898 0.58203,0.42188 0.63281,0.38281 0.67773,0.34961 2.92774,-2.33203 -0.1875,-0.73828 -0.23242,-0.70313 -0.2793,-0.66211 -0.33008,-0.61328 -0.40234,-0.54297 -1.93164,-1.84765 1.7207,-2.0918 1.38672,-2.32813 2.39258,1.19141 0.64648,0.19531 0.68945,0.10352 0.7168,0.0371 0.74024,-0.0176 0.75781,-0.0723 1.20508,-3.54687 -0.5586,-0.51758 -0.57617,-0.4668 -0.5918,-0.40625 -0.60937,-0.33789 -0.63086,-0.23828 -2.625,-0.51172 0.31641,-2.68945 -0.0918,-2.70703 2.6582,-0.29102 0.64844,-0.18554 0.63477,-0.28711 0.625,-0.35547 0.61132,-0.41602 0.59961,-0.4707 -0.90429,-3.63281 -0.75,-0.13477 -0.73633,-0.0801 -0.71875,-0.0215 -0.69531,0.0449 -0.66016,0.14063 -2.48242,0.98828 -1.18946,-2.4336 -1.54101,-2.22851 2.07812,-1.68164 0.44532,-0.50586 0.38086,-0.58399 0.33203,-0.63671 0.29101,-0.68165 0.25,-0.7207 -2.72656,-2.5664 -0.70312,0.29101 -0.66211,0.33008 -0.61719,0.37109 -0.56055,0.41406 -0.47851,0.47461 -1.55469,2.17578 -2.31641,-1.40625 -2.5,-1.04101 0.83985,-2.53711 0.0996,-0.66797 0.004,-0.69727 -0.0644,-0.71679 -0.12305,-0.72852 -0.17969,-0.74023 z m -2.46289,21.86524 a 2,2 0 0 1 1.64258,0.98828 2,2 0 0 1 -0.71484,2.73633 2,2 0 0 1 -2.73633,-0.71485 2,2 0 0 1 0.71484,-2.73828 2,2 0 0 1 1.09375,-0.27148 z"
     id="path1" />
  <g
     stroke="#000000"
     stroke-width="2px"
     transform="rotate(-118.06699,-141.49729,-3.4971463)"
     id="g4"
     style="fill:#f37726;fill-opacity:1;stroke:#000000;stroke-opacity:0">
    <path
       id="circle3"
       style="fill:#f37726;fill-opacity:1;stroke:#000000;stroke-opacity:0"
       d="M 85.505011,39.04924 A 94,94 0 0 0 93.999541,6.3043161e-4 94,94 0 0 0 6.3043161e-4,-93.999541 94,94 0 0 0 -93.999541,-6.3043161e-4 94,94 0 0 0 -6.3043161e-4,93.999541 94,94 0 0 0 85.505011,39.04924 Z m -19.815337,-0.828866 -1.986822,3.228017 -1.27909,-0.237125 -1.247041,-0.293078 -1.209707,-0.350643 -1.165941,-0.420269 -1.105978,-0.507821 -1.415135,1.985659 -1.482811,1.934081 0.807992,0.90893 0.743776,0.992001 0.691507,1.052668 0.642914,1.106441 0.602363,1.153435 -2.504553,2.845714 -1.22109,-0.449676 -1.178702,-0.500117 -1.131946,-0.550443 -1.077954,-0.610191 -1.00604,-0.686944 -1.729615,1.716159 -1.788329,1.656077 0.642218,1.033027 0.565248,1.102657 0.504477,1.154363 0.44738,1.199176 0.397408,1.238932 -2.949335,2.380568 -1.125867,-0.649018 -1.07934,-0.690614 -1.022244,-0.735425 -0.958945,-0.783571 -0.876,-0.847802 -1.994811,1.399893 -2.041922,1.330503 0.459782,1.126105 0.370058,1.182295 0.299061,1.224121 0.241389,1.257559 0.181189,1.287437 -3.307612,1.848663 -1.002262,-0.831016 -0.945511,-0.862731 -0.883472,-0.896055 -0.813395,-0.936158 -0.719533,-0.983502 -2.203025,1.04318 -2.23681,0.965404 0.262407,1.189083 0.16441,1.227581 0.08939,1.256195 0.02322,1.280673 -0.03756,1.299177 -3.573638,1.264129 -0.845224,-0.988544 -0.786976,-1.01061 -0.719079,-1.034168 -0.644174,-1.058417 -0.542843,-1.090711 -2.346674,0.656705 -2.369775,0.571345 0.05722,1.216906 -0.04469,1.237826 -0.123731,1.253229 -0.193122,1.267137 -0.257116,1.27507 -3.734658,0.640409 -0.667962,-1.117583 -0.6047723,-1.128159 -0.5336573,-1.141148 -0.4547291,-1.152185 -0.352134,-1.166097 -2.4233447,0.248395 -2.4316249,0.164295 -0.148781,1.208884 -0.2528708,1.213145 -0.3350168,1.213612 -0.4040654,1.214423 -0.4687483,1.215348 -3.7912455,-6.7e-4 -0.4679474,-1.214569 -0.4041836,-1.213771 -0.3351349,-1.214582 -0.2521844,-1.212407 -0.1500471,-1.208855 -2.4308522,-0.165093 -2.4243115,-0.247929 -0.3512209,1.16513 -0.4548527,1.151928 -0.5332085,1.141136 -0.6045557,1.129653 -0.667977,1.115758 -3.736045,-0.639692 -0.256671,-1.274561 -0.192217,-1.266756 -0.124431,-1.252745 -0.04527,-1.239311 0.05721,-1.215654 -2.368621,-0.572383 -2.346341,-0.65568 -0.544128,1.091045 -0.642017,1.05877 -0.720833,1.032239 -0.784945,1.011334 -0.848136,0.988707 -3.572042,-1.262754 -0.03838,-1.302042 0.02217,-1.278609 0.09064,-1.257592 0.164979,-1.226808 0.262753,-1.190167 -2.239522,-0.96394 -2.201617,-1.043332 -0.719575,0.984214 -0.81264,0.934591 -0.883301,0.896914 -0.947068,0.862913 -1.000379,0.830059 -3.308542,-1.848258 0.182321,-1.288391 0.238276,-1.256341 0.300319,-1.22326 0.371785,-1.18294 0.45945,-1.127342 -2.042981,-1.328388 -1.995654,-1.400544 -0.874114,0.846476 -0.959024,0.785708 -1.024057,0.733324 -1.077139,0.69174 -1.12758,0.64935 -2.949448,-2.380577 0.399468,-1.239009 0.44738,-1.20018 0.502991,-1.155035 0.565382,-1.101847 0.642249,-1.034298 -1.787153,-1.654585 -1.7296,-1.716861 -1.006253,0.687482 -1.077607,0.609593 -1.132874,0.55135 -1.178721,0.500342 -1.221924,0.448532 -2.50303,-2.844199 0.599958,-1.154239 0.645,-1.105876 0.692569,-1.05395 0.740714,-0.99065 0.811148,-0.911038 -1.483641,-1.933222 -1.415862,-1.985617 -1.107258,0.507459 -1.165286,0.421182 -1.209755,0.35099 -1.244916,0.292399 -1.280194,0.238174 -1.986178,-3.22821 0.786436,-1.034887 0.822631,-0.982386 0.858597,-0.921153 0.900424,-0.850156 0.950524,-0.761465 -1.134398,-2.156486 -1.059149,-2.193832 -1.177245,0.310775 -1.220223,0.217028 -1.25148,0.142814 -1.276876,0.07836 -1.301469,0.01655 -1.41417,-3.516408 0.951201,-0.88727 0.977632,-0.828908 1.00211,-0.762734 1.030724,-0.687714 1.065661,-0.587189 -0.753554,-2.318631 -0.67256,-2.341848 -1.213914,0.109722 -1.239199,0.0077 -1.257245,-0.07054 -1.272877,-0.140848 -1.284371,-0.202312 -0.800218,-3.704772 1.089086,-0.714144 1.102304,-0.65176 1.116213,-0.582368 1.131615,-0.503326 1.151616,-0.399696 -0.351794,-2.4120761 -0.266777,-2.4220791 -1.214623,-0.096506 -1.222331,-0.2024333 -1.228083,-0.2829704 -1.230618,-0.352938 -1.232461,-0.4158973 -0.161094,-3.7867493 1.193194,-0.51918617 1.195958,-0.45795025 1.199297,-0.38534027 1.199764,-0.30319418 1.202302,-0.20002346 0.06215,-2.43704637 0.145906,-2.4322291 -1.180406,-0.3018169 -1.171569,-0.4055631 -1.162501,-0.4848379 -1.15366,-0.5553811 -1.144131,-0.6189159 0.482175,-3.7602708 1.263757,-0.311128 1.255951,-0.246674 1.247111,-0.176131 1.234595,-0.09869 1.218751,0.0057 0.470703,-2.389636 0.555034,-2.373445 -1.112409,-0.495757 -1.084387,-0.598127 -1.063139,-0.675334 -1.04304,-0.742088 -1.023055,-0.804474 1.108568,-3.623268 1.298244,-0.09353 1.279984,-0.03022 1.25816,0.03561 1.234271,0.113622 1.200273,0.210593 0.868808,-2.276968 0.94659,-2.244346 -1.010635,-0.678327 -0.969743,-0.771621 -0.93287,-0.844924 -0.903236,-0.908806 -0.873828,-0.963956 1.707855,-3.385619 1.295049,0.128323 1.266447,0.186114 1.235088,0.249078 1.195688,0.318819 1.146983,0.410161 1.241527,-2.095937 1.313797,-2.052976 -0.883238,-0.83838 -0.824192,-0.924209 -0.777899,-0.990274 -0.736199,-1.047724 -0.697256,-1.100002 2.253844,-3.04801 1.254399,0.345697 1.218098,0.397172 1.174676,0.453702 1.124935,0.517929 1.059915,0.598359 1.578636,-1.856424 1.64275,-1.802318 -0.728494,-0.974999 -0.656581,-1.051752 -0.60006,-1.107939 -0.548135,-1.155508 -0.501494,-1.201468 2.737225,-2.622046 1.178247,0.550783 1.131606,0.596743 1.083127,0.646151 1.020518,0.701304 0.944467,0.769211 1.869795,-1.563944 1.921387,-1.498805 -0.553528,-1.083127 -0.46886,-1.14644 -0.403837,-1.193665 -0.345132,-1.233193 -0.290908,-1.268469 3.1418,-2.123004 1.066593,0.743579 1.015815,0.780693 0.956305,0.817578 0.889559,0.863885 0.800755,0.918352 2.10558,-1.225731 2.148212,-1.15209 -0.362703,-1.162879 -0.26712,-1.209304 -0.195432,-1.244121 -0.133509,-1.27308 -0.0725,-1.300315 3.454699,-1.559959 0.927592,0.912939 0.868312,0.941093 0.804665,0.969133 0.73045,1.000389 0.632453,1.038887 2.2845,-0.851437 2.310358,-0.771247 -0.159698,-1.20736 -0.05929,-1.237931 0.01642,-1.259538 0.08593,-1.277811 0.14659,-1.291949 3.667763,-0.95497 0.760441,1.056223 0.697943,1.073807 0.629356,1.090357 0.550198,1.110127 0.450017,1.131965 2.392879,-0.45278 2.4090869,-0.371095 0.046758,-1.216802 0.1484345,-1.228989 0.2308095,-1.238189 0.2991681,-1.246007 0.3647699,-1.248657 3.7769683,-0.321249 0.5696204,1.169178 0.5056277,1.177111 0.4373835,1.180565 0.354204,1.187121 0.2518378,1.192302 2.43542786459,-0.04274 2.43669983541,0.04205 0.2522983,-1.191315 0.3544357,-1.187764 0.4346294,-1.180419 0.5079293,-1.176749 0.5697409,-1.168138 3.7758809,0.320065 0.3647799,1.25031 0.2994071,1.244226 0.2296684,1.23803 0.1503937,1.228961 0.045843,1.217481 2.4080091,0.369829 2.39446,0.453355 0.44911,-1.132856 0.551594,-1.109198 0.627997,-1.090593 0.698312,-1.073022 0.759894,-1.05568 3.668405,0.953348 0.146953,1.293529 0.08537,1.276186 0.0185,1.260454 -0.06215,1.237368 -0.159236,1.207736 2.310966,0.771837 2.284433,0.850654 0.631909,-1.039813 0.730488,-1.00053 0.806547,-0.968827 0.868706,-0.940111 0.927417,-0.913232 3.452356,1.561939 -0.07249,1.29826 -0.132116,1.273106 -0.195193,1.246112 -0.268496,1.20924 -0.36248,1.16134 2.148088,1.152023 2.10685,1.225211 0.799085,-0.917471 0.889393,-0.862677 0.957298,-0.81983 1.015665,-0.779854 1.067139,-0.743553 3.140599,2.121711 -0.291928,1.269789 -0.345125,1.23257 -0.40177,1.193513 -0.469559,1.146299 -0.55355,1.083808 1.923168,1.499126 1.869061,1.56324 0.943745,-0.769507 1.021417,-0.699317 1.082084,-0.647047 1.132296,-0.595927 1.177452,-0.551928 2.736924,2.621405 -0.501608,1.202254 -0.547568,1.155613 -0.599618,1.107939 -0.655805,1.051419 -0.728077,0.975254 1.639994,1.801887 1.579107,1.85796 1.059915,-0.601319 1.12495,-0.515733 1.175738,-0.453238 1.217104,-0.39798 1.255022,-0.34456 2.253049,3.047348 -0.696356,1.098413 -0.736112,1.048439 -0.778283,0.990539 -0.82459,0.923792 -0.883536,0.839239 1.314535,2.051115 1.240781,2.098112 1.146674,-0.411186 1.19758,-0.319853 1.234122,-0.247246 1.267445,-0.185209 1.294795,-0.128571 1.705977,3.384258 -0.872839,0.964467 -0.902831,0.908635 -0.933513,0.845793 -0.969136,0.771462 -1.012113,0.677717 0.947711,2.245083 0.869129,2.276227 1.200003,-0.212317 1.233215,-0.11271 1.259992,-0.03424 1.2793,0.02917 1.297688,0.09431 1.109034,3.623745 -1.021522,0.803291 -1.044392,0.742403 -1.06186,0.675539 -1.085995,0.596266 -1.1122,0.495971 0.55549,2.374602 0.472081,2.389891 1.218175,-0.0056 1.23381,0.09788 1.24657,0.177729 1.257032,0.245284 1.264047,0.311 0.480714,3.7601787 -1.144242,0.6183314 -1.153094,0.5560619 -1.162638,0.4867844 -1.170112,0.4053282 -1.180463,0.3002052 0.145913,2.4328905 0.06021,2.43588573 1.201421,0.20013747 1.201316,0.30411266 1.199141,0.38706324 1.196505,0.45427397 1.192146,0.52056573 -0.160482,3.787929 -1.233301,0.4159042 -1.23078,0.3530593 -1.226305,0.2824017 -1.222408,0.2003701 -1.214489,0.098347 -0.267116,2.4229347 -0.351561,2.4111099 1.149854,0.400625 1.133206,0.502418 1.117128,0.582384 1.100476,0.650974 1.088304,0.715314 -0.797898,3.70481 -1.285366,0.202215 -1.274114,0.139598 -1.257461,0.07101 -1.237937,-0.0071 -1.212557,-0.108684 -0.673029,2.341517 -0.755407,2.317513 1.067152,0.588937 1.030512,0.686712 1.003175,0.762886 0.975264,0.827687 0.951831,0.888235 -1.412461,3.516565 -1.301472,-0.01665 -1.278041,-0.0772 -1.251852,-0.142917 -1.220149,-0.218978 -1.177535,-0.311353 -1.057119,2.194265 -1.136512,2.156359 0.950785,0.761513 0.900358,0.851935 0.859233,0.920759 0.822705,0.980964 z" />
  </g>
  <path
     id="polygon4"
     style="fill:#4e4e4e;fill-opacity:1;stroke:none;stroke-opacity:1"
     d="m -200.32032,-159.63477 -0.48828,0.67188 -0.43164,0.68554 -0.37304,0.69727 -0.29883,0.70703 -0.19922,0.7207 -0.25195,2.29688 -2.75782,-0.14453 -2.75781,0.17578 -0.27734,-2.29492 -0.20703,-0.71875 -0.3086,-0.70313 -0.3789,-0.6914 -0.43945,-0.67969 -0.4961,-0.66797 -3.6543,0.85547 -0.14844,0.81836 -0.0918,0.80469 -0.0332,0.78906 0.0371,0.76758 0.13282,0.73437 0.76953,2.17969 -2.54688,1.06641 -2.4082,1.35351 -1.24609,-1.94531 -0.49805,-0.5586 -0.58203,-0.5 -0.64258,-0.45898 -0.69141,-0.42187 -0.73632,-0.38477 -2.9219,2.35544 0.22266,0.80078 0.26562,0.76563 0.3125,0.72461 0.36719,0.67578 0.43945,0.60352 1.63867,1.63085 -1.83203,2.06641 -1.58203,2.26367 -1.96875,-1.21289 -0.68945,-0.28515 -0.74219,-0.19922 -0.77734,-0.13477 -0.80664,-0.0801 -0.83008,-0.0273 -1.60938,3.39062 0.54688,0.625 0.57226,0.57423 0.5957,0.51757 0.62305,0.44922 0.6582,0.35352 2.1836,0.75781 -0.75391,2.6582 -0.44336,2.72461 -2.29883,-0.23828 -0.74609,0.041 -0.75586,0.14453 -0.75781,0.21484 -0.76172,0.2793 -0.75977,0.33398 0.0215,3.75391 0.76367,0.32617 0.76367,0.26758 0.76172,0.20703 0.75586,0.13672 0.74609,0.0332 2.29688,-0.26562 0.47461,2.7207 0.7832,2.64844 -2.17578,0.7832 -0.6543,0.35938 -0.61718,0.45898 -0.58985,0.52344 -0.56445,0.58008 -0.54102,0.63086 1.64844,3.37304 0.83008,-0.0371 0.80469,-0.0898 0.77539,-0.14453 0.74023,-0.20508 0.6875,-0.29492 1.95313,-1.23438 1.60742,2.2461 1.85547,2.04687 -1.6211,1.64844 -0.43164,0.60742 -0.35742,0.67969 -0.30469,0.72852 -0.25781,0.76757 -0.21289,0.80274 2.94922,2.32422 0.73047,-0.39453 0.68554,-0.42774 0.63672,-0.4668 0.57813,-0.50781 0.49023,-0.5625 1.22461,-1.96094 2.42383,1.32618 2.55859,1.03906 -0.74414,2.18945 -0.125,0.73438 -0.0273,0.76953 0.041,0.78711 0.10157,0.80469 0.15625,0.81445 3.66406,0.81445 0.48828,-0.67187 0.43164,-0.68555 0.37305,-0.69531 0.29883,-0.70703 0.19922,-0.72071 0.25195,-2.29687 2.75781,0.14258 2.75781,-0.17383 0.27735,2.29492 0.20703,0.7168 0.30859,0.70312 0.37891,0.69336 0.43946,0.67968 0.49609,0.66602 3.65429,-0.85547 0.14844,-0.8164 0.0918,-0.80469 0.0332,-0.78906 -0.0371,-0.76758 -0.13281,-0.73438 -0.76953,-2.17968 2.54687,-1.06836 2.40821,-1.35352 1.24609,1.94727 0.49805,0.55664 0.58203,0.5 0.64258,0.45898 0.6914,0.42188 0.73633,0.38672 2.92188,-2.35743 -0.22266,-0.80078 -0.26563,-0.76562 -0.3125,-0.72266 -0.36718,-0.67578 -0.43946,-0.60547 -1.63867,-1.6289 1.83203,-2.06836 1.58203,-2.26368 1.96875,1.21289 0.68946,0.28711 0.74219,0.19727 0.77734,0.13476 0.80664,0.0801 0.83008,0.0293 1.60937,-3.39258 -0.54687,-0.625 -0.57226,-0.57422 -0.59571,-0.51562 -0.62304,-0.45118 -0.65821,-0.35351 -2.18359,-0.75781 0.7539,-2.65625 0.44336,-2.72657 2.29883,0.23828 0.7461,-0.041 0.7539,-0.14258 0.75977,-0.2168 0.76172,-0.27734 0.75976,-0.33398 -0.0215,-3.75391 -0.76367,-0.32617 -0.76368,-0.26953 -0.76171,-0.20704 -0.75586,-0.13476 -0.7461,-0.0332 -2.29687,0.26562 -0.47461,-2.72265 -0.78321,-2.64844 2.17579,-0.78125 0.65429,-0.36133 0.61719,-0.45703 0.58984,-0.52344 0.56446,-0.58008 0.54101,-0.63086 -1.64842,-3.37497 -0.83007,0.0391 -0.80469,0.0899 -0.77539,0.14257 -0.74024,0.20704 -0.6875,0.29296 -1.95312,1.23633 -1.60742,-2.24609 -1.85547,-2.04688 1.61914,-1.64843 0.43359,-0.60938 0.35742,-0.67969 0.30469,-0.72851 0.25781,-0.76758 0.21289,-0.80273 -2.94921,-2.32422 -0.73047,0.39453 -0.68555,0.42969 -0.63867,0.46679 -0.57617,0.50586 -0.49219,0.5625 -1.22266,1.96094 -2.42382,-1.32617 -2.5586,-1.03906 0.74414,-2.1875 0.125,-0.73633 0.0274,-0.76758 -0.041,-0.78906 -0.10156,-0.80274 -0.15625,-0.8164 z m -4.38476,21.64063 a 8,8 0 0 1 5.94531,2.9707 8,8 0 0 1 -1.20312,11.25 8,8 0 0 1 -11.25,-1.20312 8,8 0 0 1 1.20312,-11.25 8,8 0 0 1 5.30469,-1.76758 z" />
  <path
     id="polygon1"
     style="fill:#616262;fill-opacity:1;stroke:none;stroke-opacity:1"
     d="m -232.88282,-194.2168 -3.74414,0.0234 -0.30859,0.69531 -0.25195,0.69727 -0.18946,0.69336 -0.11914,0.68554 -0.0195,0.67578 0.375,2.64649 -2.64453,0.58203 -2.5293,0.9707 -1.14453,-2.41601 -0.38672,-0.55274 -0.47851,-0.50586 -0.54102,-0.47461 -0.59375,-0.44335 -0.64062,-0.41016 -3.13672,2.04297 0.11719,0.75195 0.16406,0.72266 0.21484,0.68554 0.27149,0.64258 0.34765,0.57813 1.74805,2.02343 -1.91211,1.91797 -1.60156,2.18555 -2.26953,-1.41406 -0.625,-0.25586 -0.67578,-0.16797 -0.71094,-0.10547 -0.73828,-0.0527 -0.76172,0 -1.53516,3.41601 0.50586,0.57031 0.5293,0.51758 0.55078,0.46094 0.57617,0.39258 0.60547,0.29883 2.5625,0.75781 -0.57031,2.64844 -0.16602,2.70312 -2.67187,0.0371 -0.66407,0.12305 -0.66015,0.22461 -0.65625,0.29492 -0.64844,0.35547 -0.64062,0.41211 0.55468,3.70312 0.73438,0.20508 0.72461,0.15039 0.71289,0.0898 0.69726,0.0195 0.66993,-0.0762 2.5664,-0.74804 0.95117,2.53515 1.32227,2.36524 -2.22852,1.47656 -0.49023,0.46289 -0.43555,0.54492 -0.39062,0.60156 -0.35352,0.6504 -0.3164,0.69335 2.46875,2.81446 0.72851,-0.22267 0.68945,-0.26562 0.64844,-0.31055 0.59766,-0.35937 0.52343,-0.42774 1.75391,-2.01562 2.17187,1.61718 2.39063,1.27539 -1.07813,2.44727 -0.1621,0.6543 -0.0703,0.69336 -0.004,0.71875 0.0527,0.73828 0.10938,0.7539 3.59765,1.03321 0.49219,-0.58203 0.4375,-0.59766 0.37891,-0.61133 0.30664,-0.625 0.20898,-0.64062 0.38672,-2.64649 2.70117,0.1875 2.69922,-0.2207 0.41797,2.64062 0.2168,0.64063 0.3164,0.62109 0.38477,0.60743 0.44336,0.59179 0.5,0.57422 3.58593,-1.07617 0.0996,-0.75586 0.0449,-0.73828 -0.0137,-0.71875 -0.0781,-0.69141 -0.17188,-0.6543 -1.10547,-2.43359 2.375,-1.30273 2.15235,-1.64453 1.77734,1.99609 0.52735,0.41992 0.60156,0.35156 0.65234,0.30274 0.69532,0.25781 0.73046,0.21484 2.4336,-2.8457 -0.32422,-0.6875 -0.36133,-0.64648 -0.39844,-0.59766 -0.4414,-0.53906 -0.4961,-0.45703 -2.24804,-1.44922 1.29492,-2.38086 0.91992,-2.54688 2.57617,0.7168 0.66992,0.0684 0.69727,-0.0293 0.71289,-0.0977 0.72266,-0.15821 0.73048,-0.2148 0.50975,-3.70902 -0.64453,-0.40429 -0.65429,-0.34766 -0.65821,-0.28711 -0.66406,-0.21679 -0.66406,-0.11524 -2.67383,-0.004 -0.19922,-2.70117 -0.60156,-2.64062 2.55469,-0.78906 0.60156,-0.30665 0.57031,-0.40039 0.54688,-0.46679 0.52148,-0.52539 0.49805,-0.57422 -1.57618,-3.39844 -0.75976,0.01 -0.73828,0.0605 -0.70899,0.11524 -0.67578,0.17578 -0.62109,0.26367 -2.25195,1.44141 -1.62696,-2.16602 -1.93554,-1.89648 1.72265,-2.04297 0.3418,-0.58399 0.26367,-0.64453 0.20508,-0.68945 0.15625,-0.72266 0.10937,-0.7539 -3.16211,-2.00586 -0.63671,0.41992 -0.5879,0.44922 -0.53515,0.48047 -0.4707,0.51367 -0.38086,0.55664 -1.11524,2.42969 -2.54101,-0.94141 -2.65235,-0.54883 0.34375,-2.65039 -0.0273,-0.67578 -0.12695,-0.68555 -0.19922,-0.68945 -0.25977,-0.69336 z m -1.74023,21.9375 a 2,2 0 0 1 1.92773,1.42578 2,2 0 0 1 -1.33984,2.49024 2,2 0 0 1 -2.49023,-1.33985 2,2 0 0 1 1.33984,-2.49023 2,2 0 0 1 0.5625,-0.0859 z" />
  <path
     id="polygon6"
     style="fill:#9e9e9e;fill-opacity:1;stroke:none;stroke-opacity:1"
     d="m -227.89063,-108.03711 -3.67187,0.73047 -0.17188,0.74218 -0.11523,0.73243 -0.0547,0.71679 0.0117,0.69532 0.10937,0.66797 0.86914,2.52734 -2.48828,1.07031 -2.29882,1.433595 -1.58008,-2.156255 -0.48633,-0.46874 -0.56445,-0.40821 -0.6211,-0.36133 -0.66601,-0.32226 -0.70703,-0.2832 -2.69336,2.5996 0.25781,0.716802 0.29883,0.677734 0.33984,0.632812 0.38672,0.578125 0.45117,0.501953 2.09961,1.65625 -1.51367,2.248047 -1.16016,2.447266 -2.49414,-0.958984 -0.66211,-0.132813 -0.69726,-0.03711 -0.7168,0.03125 -0.73438,0.08789 -0.74804,0.144531 -0.86133,3.644532 0.60352,0.46289 0.61718,0.408203 0.62891,0.34961 0.64062,0.277344 0.6504,0.177734 2.66015,0.259766 -0.0586,2.707031 0.34765,2.6875 -2.61718,0.541015 -0.62696,0.248047 -0.60742,0.34375 -0.58789,0.414063 -0.56836,0.472656 -0.55273,0.525391 1.24609,3.53125 0.75977,0.0625 0.74023,0.0098 0.7168,-0.04688 0.6875,-0.111328 0.64453,-0.201171 2.3789,-1.220704 1.41407,2.308594 1.74609,2.072266 -1.91016,1.871094 -0.39453,0.546875 -0.32226,0.61914 -0.27149,0.664063 -0.22461,0.705078 -0.17968,0.740235 2.95703,2.296874 0.67383,-0.355469 0.62695,-0.392577 0.57812,-0.427735 0.51953,-0.464844 0.43165,-0.519531 1.34179,-2.3125 2.4375,1.179688 2.58789,0.798828 -0.59375,2.605468 -0.0351,0.673828 0.0605,0.695313 0.13282,0.705079 0.19336,0.714842 0.24804,0.720704 3.73047,0.332031 0.37305,-0.664062 0.3164,-0.667969 0.25391,-0.671875 0.18555,-0.671875 0.084,-0.669922 -0.12304,-2.669922 2.68945,-0.328124 2.60937,-0.726564 0.90821,2.513672 0.33398,0.585938 0.42774,0.550781 0.49218,0.523438 0.54883,0.496093 0.59961,0.470704 3.31641,-1.736328 -0.0449,-0.759768 -0.0957,-0.734375 -0.14843,-0.703124 -0.20899,-0.664062 -0.29101,-0.609376 -1.54688,-2.179688 2.08594,-1.728515 1.80078,-2.023438 2.125,1.623048 0.59766,0.3125 0.6582,0.232421 0.69726,0.173828 0.72852,0.121094 0.75977,0.07227 1.85156,-3.253906 -0.44922,-0.615235 -0.47656,-0.564453 -0.50586,-0.511719 -0.53516,-0.447265 -0.57422,-0.353516 -2.47851,-0.998047 0.81836,-2.582031 0.42187,-2.675781 2.66602,0.216797 0.67187,-0.06055 0.67774,-0.160156 0.67968,-0.230469 0.68164,-0.292969 0.67579,-0.347656 -0.20118,-3.740234 -0.70898,-0.273438 -0.70898,-0.21875 -0.70118,-0.15625 -0.6914,-0.08789 -0.67383,0.01367 -2.62695,0.5 -0.70508,-2.615235 -1.0918,-2.478515 2.35938,-1.257813 0.5332,-0.414062 0.48242,-0.501954 0.44922,-0.562499 0.41211,-0.613282 0.38086,-0.658203 -2.18945,-3.03711 -0.7461,0.152344 -0.71289,0.199219 -0.67578,0.246094 -0.62695,0.302735 -0.5625,0.374999 -1.9375,1.839844 -2.00782,-1.816406 -2.25781,-1.496094 1.30469,-2.333986 0.22461,-0.63672 0.13476,-0.68359 0.0723,-0.71484 0.0176,-0.74024 -0.0371,-0.75977 -3.48442,-1.37108 -0.54492,0.5332 -0.49219,0.55274 -0.43359,0.57226 -0.36719,0.59375 -0.26758,0.61719 -0.63672,2.59766 -2.67187,-0.44336 -2.70703,-0.0371 -0.16406,-2.66797 -0.15625,-0.65821 -0.25391,-0.64843 -0.32617,-0.64063 -0.38672,-0.63086 z m 2.72656,21.835936 a 2,2 0 0 1 2.10352,1.888672 2,2 0 0 1 -1.88867,2.105469 2,2 0 0 1 -2.10547,-1.890625 2,2 0 0 1 1.89062,-2.103516 z" />
</svg>
