<?xml version="1.0" encoding="UTF-8" standalone="no"?>
<svg
   height="190.0141"
   width="190.02721"
   viewBox="-300 -225 190.02721 190.0141"
   preserveAspectRatio="xMidYMid slice"
   version="1.1"
   id="svg8"
   sodipodi:docname="jupycad_python_4.svg"
   inkscape:version="1.3.2 (091e20ef0f, 2023-11-25, custom)"
   xmlns:inkscape="http://www.inkscape.org/namespaces/inkscape"
   xmlns:sodipodi="http://sodipodi.sourceforge.net/DTD/sodipodi-0.dtd"
   xmlns="http://www.w3.org/2000/svg"
   xmlns:svg="http://www.w3.org/2000/svg">
  <sodipodi:namedview
     id="namedview1"
     pagecolor="#1f1f1f"
     bordercolor="#000000"
     borderopacity="0.25"
     inkscape:showpageshadow="2"
     inkscape:pageopacity="0.0"
     inkscape:pagecheckerboard="0"
     inkscape:deskcolor="#121212"
     inkscape:zoom="4.9943662"
     inkscape:cx="94.005922"
     inkscape:cy="119.6348"
     inkscape:window-width="1875"
     inkscape:window-height="2091"
     inkscape:window-x="0"
     inkscape:window-y="0"
     inkscape:window-maximized="0"
     inkscape:current-layer="svg8" />
  <defs
     id="defs8" />
  <path
     id="circle3"
     class="jp-icon-selectable"
     fill="#4584b6"
     d="m -210.75984,-223.82177 a 94,94 0 0 0 -38.45312,10.87695 94,94 0 0 0 -38.71875,127.17188 94,94 0 0 0 127.17188,38.718748 94,94 0 0 0 38.71875,-127.171878 94,94 0 0 0 -88.71876,-49.5957 z m 8.5918,17.875 3.7832,0.23438 0.39258,1.24023 0.32813,1.23828 0.25976,1.23242 0.17774,1.22656 0.0723,1.21485 2.41797,0.31445 2.4043,0.39844 0.42187,-1.14063 0.52539,-1.12304 0.60352,-1.10547 0.67383,-1.08789 0.73437,-1.07422 3.68946,0.87109 0.17773,1.28907 0.11328,1.27539 0.0469,1.25781 -0.0312,1.23828 -0.13282,1.21094 2.32813,0.71875 2.30273,0.79883 0.60938,-1.05274 0.70703,-1.01758 0.78125,-0.98828 0.84766,-0.95898 0.90625,-0.9336 3.48828,1.48243 -0.043,1.29882 -0.10156,1.27735 -0.16797,1.24804 -0.24024,1.21485 -0.33593,1.17187 2.17382,1.10157 2.13477,1.17578 0.77734,-0.93555 0.86914,-0.88281 0.93946,-0.83985 0.99609,-0.80468 1.05078,-0.76563 3.1875,2.04883 -0.26172,1.27539 -0.3164,1.24023 -0.375,1.20118 -0.44336,1.1582 -0.5293,1.09766 1.95703,1.45312 1.9043,1.51953 0.92578,-0.79101 1.00586,-0.72266 1.06641,-0.66992 1.11913,-0.62305 1.16407,-0.57813 2.79687,2.5586 -0.47461,1.21093 -0.52148,1.16993 -0.57422,1.12109 -0.63086,1.06641 -0.70703,0.99218 1.68359,1.76172 1.61914,1.82227 1.04688,-0.62305 1.11328,-0.54297 1.16406,-0.48047 1.20899,-0.42578 1.24609,-0.37305 2.32227,2.99414 -0.67188,1.11524 -0.71094,1.06445 -0.75586,1.00781 -0.80273,0.94336 -0.86328,0.85938 1.35937,2.02148 1.28907,2.06836 1.13671,-0.4375 1.18946,-0.34765 1.22851,-0.27539 1.26172,-0.21485 1.29297,-0.1582 1.7832,3.3457 -0.85156,0.98438 -0.88086,0.92773 -0.91406,0.86719 -0.95117,0.79297 -0.9961,0.70117 0.99805,2.22266 0.92188,2.25585 1.19336,-0.23828 1.23046,-0.14062 1.25782,-0.0664 1.28125,0.002 1.29882,0.0645 1.19336,3.59765 -1.0039,0.82618 -1.02735,0.76562 -1.04687,0.69922 -1.07227,0.62305 -1.0996,0.52148 0.60937,2.35938 0.52539,2.37891 1.21875,-0.0332 1.23633,0.0684 1.25,0.15039 1.26172,0.2168 1.27148,0.2832 0.56641,3.7461 -1.13086,0.64648 -1.13868,0.58203 -1.15234,0.51172 -1.16015,0.43164 -1.17383,0.32812 0.20312,2.42969 0.11524,2.43359 1.20703,0.17188 1.20703,0.27734 1.20703,0.35742 1.20703,0.42969 1.20313,0.49219 -0.0742,3.78906 -1.22266,0.44531 -1.2207,0.38086 -1.2207,0.31055 -1.21875,0.22851 -1.21094,0.12501 -0.21094,2.42773 -0.29687,2.41992 1.1582,0.37305 1.14453,0.47656 1.12891,0.5586 1.11718,0.62499 1.10352,0.68946 -0.71289,3.72265 -1.28125,0.23047 -1.26953,0.16992 -1.25586,0.0996 -1.23828,0.0195 -1.21485,-0.0801 -0.61914,2.35547 -0.70117,2.33398 1.08008,0.56445 1.04492,0.66407 1.01953,0.74023 0.9961,0.80469 0.9707,0.86719 -1.33203,3.54687 -1.30078,0.0137 -1.2793,-0.0488 -1.25586,-0.11523 -1.22266,-0.1875 -1.18554,-0.28711 -1.00782,2.218751 -1.08593,2.183593 0.96875,0.738281 0.91992,0.830079 0.87891,0.902343 0.84375,0.960937 0.8125,1.017579 -1.91407,3.271484 -1.2832,-0.207031 -1.25391,-0.263672 -1.21679,-0.324219 -1.17383,-0.394531 -1.11914,-0.480468 -1.36914,2.015625 -1.4375,1.966796 0.82812,0.892578 0.76563,0.97461 0.71484,1.03711 0.66992,1.089844 0.62695,1.140627 -2.4375,2.902343 -1.23047,-0.421874 -1.1914,-0.472656 -1.14453,-0.525391 -1.0918,-0.585937 -1.01953,-0.664063 -1.69141,1.755859 -1.75,1.695313 0.66797,1.019531 0.58984,1.089844 0.5293,1.14258 0.47461,1.189454 0.42578,1.228515 -2.89258,2.449219 -1.14258,-0.625 -1.09375,-0.666016 -1.03906,-0.710938 -0.97656,-0.761718 -0.89454,-0.828125 -1.96289,1.445313 -2.01171,1.375 0.48632,1.117187 0.39649,1.173829 0.32812,1.216796 0.26758,1.251954 0.21289,1.283202 -3.26562,1.923828 -1.01953,-0.808593 -0.9668,-0.839844 -0.9043,-0.876953 -0.83203,-0.916016 -0.74219,-0.966797 -2.17968,1.091798 -2.21485,1.015626 0.28906,1.183593 0.19336,1.22461 0.11914,1.253906 0.0527,1.279296 -0.008,1.300782 -3.54492,1.34375 -0.86915,-0.96875 -0.80859,-0.992188 -0.74219,-1.017578 -0.66796,-1.04297 -0.5684,-1.078105 -2.33008,0.708985 -2.35547,0.626953 0.0859,1.214843 -0.0176,1.238282 -0.0957,1.255859 -0.16406,1.269531 -0.22852,1.28125 -3.71875,0.726562 -0.69336,-1.101561 -0.6289,-1.115237 -0.56055,-1.126953 -0.48047,-1.142578 -0.3789,-1.158203 -2.41797,0.304687 -2.42578,0.220704 -0.12305,1.210937 -0.22461,1.21875 -0.30664,1.220702 -0.37695,1.224611 -0.43946,1.224609 -3.79101,0.08594 -0.49609,-1.203125 -0.43165,-1.205077 -0.36132,-1.207032 -0.28125,-1.205078 -0.17774,-1.205078 -2.43359,-0.109375 -2.42969,-0.19336 -0.32422,1.173829 -0.42773,1.162109 -0.50781,1.152344 -0.57813,1.142578 -0.64258,1.132813 -3.75,-0.554688 -0.28515,-1.269531 -0.22266,-1.261719 -0.15234,-1.25 -0.0723,-1.236328 0.0293,-1.216797 -2.38086,-0.519531 -2.36328,-0.601562 -0.51758,1.101562 -0.61914,1.074219 -0.69532,1.050781 -0.76171,1.027344 -0.82422,1.007812 -3.60156,-1.18164 -0.0684,-1.298828 -0.006,-1.279297 0.0605,-1.259765 0.13868,-1.23047 0.23437,-1.195312 -2.25977,-0.914062 -2.22656,-0.990235 -0.69531,0.998047 -0.79102,0.953125 -0.86328,0.917969 -0.92578,0.884765 -0.98242,0.853516 -3.35156,-1.773437 0.15429,-1.291016 0.21094,-1.263672 0.27149,-1.228516 0.34375,-1.191406 0.43359,-1.138672 -2.07227,-1.281249 -2.02734,-1.353516 -0.85547,0.867187 -0.94141,0.804688 -1.00585,0.757813 -1.06055,0.716796 -1.11329,0.675777 -3.00195,-2.314453 0.36914,-1.248047 0.42188,-1.208984 0.47656,-1.166016 0.53906,-1.115234 0.61914,-1.046875 -1.82617,-1.615235 -1.76758,-1.675781 -0.99023,0.708985 -1.06445,0.634768 -1.11914,0.578128 -1.16797,0.52539 -1.20899,0.478516 -2.56835,-2.78711 0.57421,-1.167968 0.61914,-1.121094 0.66602,-1.068359 0.7207,-1.007813 0.78711,-0.929687 -1.52539,-1.898438 -1.46094,-1.951172 -1.0957,0.531251 -1.1543,0.447265 -1.20117,0.378907 -1.24023,0.322265 -1.27344,0.265625 -2.06055,-3.181641 0.76368,-1.052734 0.80078,-1 0.83593,-0.941406 0.88086,-0.871094 0.9336,-0.783203 -1.18359,-2.128908 -1.10937,-2.169924 -1.16993,0.337891 -1.21484,0.246093 -1.24609,0.171876 -1.27735,0.105468 -1.29883,0.04687 -1.49414,-3.482419 0.93164,-0.91016 0.95703,-0.84961 0.98438,-0.78515 1.01367,-0.71094 1.05274,-0.61328 -0.80664,-2.29883 -0.72657,-2.32617 -1.21093,0.13672 -1.23829,0.0351 -1.25781,-0.041 -1.27539,-0.11133 -1.28906,-0.17383 -0.88477,-3.68555 1.07227,-0.73828 1.08594,-0.67578 1.10351,-0.60937 1.1211,-0.52735 1.14062,-0.42773 -0.40625,-2.40235 -0.32422,-2.41601 -1.21484,-0.0684 -1.22656,-0.17383 -1.23438,-0.25586 -1.23828,-0.32422 -1.24219,-0.38867 -0.24609,-3.78125 1.17969,-0.54687 1.18555,-0.48242 1.1914,-0.41406 1.19336,-0.33203 1.19531,-0.22657 0.006,-2.4375 0.0899,-2.43554 -1.18555,-0.27344 -1.17969,-0.37891 -1.17383,-0.45898 -1.16601,-0.5293 -1.1582,-0.5918 0.39453,-3.76953 1.25781,-0.33984 1.25,-0.27539 1.24219,-0.20703 1.23242,-0.125 1.21679,-0.0215 0.41797,-2.40234 0.5,-2.38477 -1.12304,-0.4707 -1.09766,-0.57227 -1.08008,-0.65039 -1.05859,-0.71875 -1.04102,-0.77929 1.02539,-3.64844 1.29688,-0.12305 1.27734,-0.0605 1.25977,0.008 1.23633,0.084 1.20312,0.1836 0.81836,-2.29493 0.89648,-2.26757 -1.02929,-0.65235 -0.98438,-0.75 -0.95312,-0.82422 -0.92383,-0.88672 -0.89453,-0.94531 1.6289,-3.42187 1.29688,0.0977 1.27148,0.15625 1.24024,0.22071 1.20312,0.29297 1.15625,0.38476 1.19141,-2.125 1.26758,-2.08203 -0.90235,-0.81836 -0.8457,-0.90625 -0.79883,-0.97266 -0.75976,-1.03125 -0.72266,-1.08203 2.18359,-3.09765 1.26172,0.3164 1.22657,0.36914 1.18554,0.42578 1.13672,0.49219 1.07422,0.57422 1.53516,-1.89258 1.59961,-1.83789 -0.75196,-0.95898 -0.67969,-1.03516 -0.62304,-1.0957 -0.57618,-1.14258 -0.52734,-1.18945 2.67578,-2.68359 1.18945,0.52343 1.14649,0.57227 1.0957,0.61914 1.03711,0.67773 0.96094,0.74805 1.83398,-1.60742 1.88672,-1.54102 -0.5781,-1.07228 -0.49414,-1.13476 -0.42969,-1.18359 -0.375,-1.22461 -0.32031,-1.26172 3.09179,-2.19336 1.08399,0.71875 1.0332,0.75586 0.97657,0.79687 0.9082,0.8418 0.82031,0.90039 2.07813,-1.27344 2.12109,-1.19922 -0.38867,-1.1543 -0.29688,-1.20312 -0.22266,-1.24024 -0.16211,-1.26953 -0.10156,-1.29687 3.41797,-1.64063 0.94727,0.89258 0.89062,0.91992 0.82617,0.94922 0.75196,0.98438 0.6582,1.02539 2.26367,-0.9043 2.29297,-0.82422 -0.1875,-1.20312 -0.0898,-1.23633 -0.0117,-1.25977 0.0566,-1.27734 0.11914,-1.29688 3.64453,-1.03906 0.7832,1.03906 0.72266,1.0586 0.6543,1.07617 0.57619,1.09569 0.47461,1.1211 2.38281,-0.50782 2.40039,-0.42383 0.0176,-1.21875 0.12109,-1.23242 0.20117,-1.24414 0.27149,-1.25 0.33594,-1.25781 3.76757,-0.4082 0.59766,1.15625 0.5332,1.16406 0.46289,1.17187 0.38086,1.17969 0.2793,1.18555 2.43359,-0.0996 2.4375,-0.0117 0.22461,-1.19726 0.32813,-1.19532 0.4082,-1.1914 0.47851,-1.1875 z"
     inkscape:label="outer_ring" />
  <path
     id="polygon4"
     class="jp-icon-selectable"
     fill="#ffde57"
     d="m -200.32032,-159.63477 -0.48828,0.67188 -0.43164,0.68554 -0.37304,0.69727 -0.29883,0.70703 -0.19922,0.7207 -0.25195,2.29688 -2.75782,-0.14453 -2.75781,0.17578 -0.27734,-2.29492 -0.20703,-0.71875 -0.3086,-0.70313 -0.3789,-0.6914 -0.43945,-0.67969 -0.4961,-0.66797 -3.6543,0.85547 -0.14844,0.81836 -0.0918,0.80469 -0.0332,0.78906 0.0371,0.76758 0.13282,0.73437 0.76953,2.17969 -2.54688,1.06641 -2.4082,1.35351 -1.24609,-1.94531 -0.49805,-0.5586 -0.58203,-0.5 -0.64258,-0.45898 -0.69141,-0.42187 -0.73632,-0.38477 -2.9219,2.35544 0.22266,0.80078 0.26562,0.76563 0.3125,0.72461 0.36719,0.67578 0.43945,0.60352 1.63867,1.63085 -1.83203,2.06641 -1.58203,2.26367 -1.96875,-1.21289 -0.68945,-0.28515 -0.74219,-0.19922 -0.77734,-0.13477 -0.80664,-0.0801 -0.83008,-0.0273 -1.60938,3.39062 0.54688,0.625 0.57226,0.57423 0.5957,0.51757 0.62305,0.44922 0.6582,0.35352 2.1836,0.75781 -0.75391,2.6582 -0.44336,2.72461 -2.29883,-0.23828 -0.74609,0.041 -0.75586,0.14453 -0.75781,0.21484 -0.76172,0.2793 -0.75977,0.33398 0.0215,3.75391 0.76367,0.32617 0.76367,0.26758 0.76172,0.20703 0.75586,0.13672 0.74609,0.0332 2.29688,-0.26562 0.47461,2.7207 0.7832,2.64844 -2.17578,0.7832 -0.6543,0.35938 -0.61718,0.45898 -0.58985,0.52344 -0.56445,0.58008 -0.54102,0.63086 1.64844,3.37304 0.83008,-0.0371 0.80469,-0.0898 0.77539,-0.14453 0.74023,-0.20508 0.6875,-0.29492 1.95313,-1.23438 1.60742,2.2461 1.85547,2.04687 -1.6211,1.64844 -0.43164,0.60742 -0.35742,0.67969 -0.30469,0.72852 -0.25781,0.76757 -0.21289,0.80274 2.94922,2.32422 0.73047,-0.39453 0.68554,-0.42774 0.63672,-0.4668 0.57813,-0.50781 0.49023,-0.5625 1.22461,-1.96094 2.42383,1.32618 2.55859,1.03906 -0.74414,2.18945 -0.125,0.73438 -0.0273,0.76953 0.041,0.78711 0.10157,0.80469 0.15625,0.81445 3.66406,0.81445 0.48828,-0.67187 0.43164,-0.68555 0.37305,-0.69531 0.29883,-0.70703 0.19922,-0.72071 0.25195,-2.29687 2.75781,0.14258 2.75781,-0.17383 0.27735,2.29492 0.20703,0.7168 0.30859,0.70312 0.37891,0.69336 0.43946,0.67968 0.49609,0.66602 3.65429,-0.85547 0.14844,-0.8164 0.0918,-0.80469 0.0332,-0.78906 -0.0371,-0.76758 -0.13281,-0.73438 -0.76953,-2.17968 2.54687,-1.06836 2.40821,-1.35352 1.24609,1.94727 0.49805,0.55664 0.58203,0.5 0.64258,0.45898 0.6914,0.42188 0.73633,0.38672 2.92188,-2.35743 -0.22266,-0.80078 -0.26563,-0.76562 -0.3125,-0.72266 -0.36718,-0.67578 -0.43946,-0.60547 -1.63867,-1.6289 1.83203,-2.06836 1.58203,-2.26368 1.96875,1.21289 0.68946,0.28711 0.74219,0.19727 0.77734,0.13476 0.80664,0.0801 0.83008,0.0293 1.60937,-3.39258 -0.54687,-0.625 -0.57226,-0.57422 -0.59571,-0.51562 -0.62304,-0.45118 -0.65821,-0.35351 -2.18359,-0.75781 0.7539,-2.65625 0.44336,-2.72657 2.29883,0.23828 0.7461,-0.041 0.7539,-0.14258 0.75977,-0.2168 0.76172,-0.27734 0.75976,-0.33398 -0.0215,-3.75391 -0.76367,-0.32617 -0.76368,-0.26953 -0.76171,-0.20704 -0.75586,-0.13476 -0.7461,-0.0332 -2.29687,0.26562 -0.47461,-2.72265 -0.78321,-2.64844 2.17579,-0.78125 0.65429,-0.36133 0.61719,-0.45703 0.58984,-0.52344 0.56446,-0.58008 0.54101,-0.63086 -1.64842,-3.37497 -0.83007,0.0391 -0.80469,0.0899 -0.77539,0.14257 -0.74024,0.20704 -0.6875,0.29296 -1.95312,1.23633 -1.60742,-2.24609 -1.85547,-2.04688 1.61914,-1.64843 0.43359,-0.60938 0.35742,-0.67969 0.30469,-0.72851 0.25781,-0.76758 0.21289,-0.80273 -2.94921,-2.32422 -0.73047,0.39453 -0.68555,0.42969 -0.63867,0.46679 -0.57617,0.50586 -0.49219,0.5625 -1.22266,1.96094 -2.42382,-1.32617 -2.5586,-1.03906 0.74414,-2.1875 0.125,-0.73633 0.0274,-0.76758 -0.041,-0.78906 -0.10156,-0.80274 -0.15625,-0.8164 z m -4.38476,21.64063 a 8,8 0 0 1 5.94531,2.9707 8,8 0 0 1 -1.20312,11.25 8,8 0 0 1 -11.25,-1.20312 8,8 0 0 1 1.20312,-11.25 8,8 0 0 1 5.30469,-1.76758 z"
     inkscape:label="center_ring" />
  <path
     class="jp-icon-selectable"
     fill="#597083"
     d="m -152.7461,-159.37891 -0.43359,0.625 -0.37891,0.63477 -0.31836,0.64453 -0.24609,0.65234 -0.14844,0.65821 -0.13086,2.66992 -2.70898,0.0703 -2.66602,0.47656 -0.66601,-2.58984 -0.27735,-0.61524 -0.37304,-0.58789 -0.44141,-0.56836 -0.49805,-0.54687 -0.55078,-0.52539 -3.46875,1.41406 -0.0273,0.75977 0.0254,0.74023 0.082,0.71485 0.14453,0.68164 0.23242,0.63281 1.33204,2.31836 -2.24024,1.52148 -1.98633,1.84375 -1.95898,-1.81836 -0.56641,-0.36914 -0.63281,-0.29297 -0.67773,-0.23828 -0.71485,-0.1914 -0.74805,-0.14454 -2.15234,3.06446 0.38871,0.65427 0.41993,0.60937 0.45508,0.55664 0.49023,0.4961 0.53711,0.40625 2.375,1.23047 -1.06055,2.49219 -0.67578,2.62304 -2.63086,-0.4707 -0.67578,-0.004 -0.69141,0.0957 -0.69921,0.16601 -0.70313,0.22656 -0.70703,0.28125 -0.15625,3.74219 0.68164,0.33984 0.68359,0.28516 0.68164,0.22266 0.68165,0.15234 0.67187,0.0527 2.66211,-0.25 0.45508,2.66992 0.84961,2.57226 -2.4668,1.02735 -0.57031,0.36133 -0.5293,0.45312 -0.5,0.51758 -0.46875,0.57226 -0.44336,0.61915 1.89258,3.23242 0.75781,-0.082 0.72852,-0.13086 0.69531,-0.18164 0.6543,-0.24024 0.59375,-0.32031 2.10351,-1.64844 1.82617,2 2.10743,1.70508 -1.52149,2.19922 -0.2832,0.61133 -0.20117,0.66797 -0.14063,0.70507 -0.0859,0.73438 -0.0371,0.76172 3.33984,1.69531 0.5918,-0.47852 0.54296,-0.5039 0.48633,-0.5293 0.42188,-0.55469 0.32617,-0.58984 0.87891,-2.52539 2.61718,0.69531 2.69336,0.29492 -0.0898,2.67188 0.0918,0.66797 0.1914,0.66992 0.26367,0.66992 0.32423,0.66406 0.38081,0.66018 3.72656,-0.3789 0.24024,-0.72266 0.18359,-0.7168 0.12305,-0.70703 0.0547,-0.69531 -0.0449,-0.67383 -0.625,-2.59961 2.57813,-0.83007 2.42383,-1.20704 1.36914,2.29688 0.4375,0.51172 0.52539,0.45898 0.58203,0.42188 0.63281,0.38281 0.67773,0.34961 2.92774,-2.33203 -0.1875,-0.73828 -0.23242,-0.70313 -0.2793,-0.66211 -0.33008,-0.61328 -0.40234,-0.54297 -1.93164,-1.84765 1.7207,-2.0918 1.38672,-2.32813 2.39258,1.19141 0.64648,0.19531 0.68945,0.10352 0.7168,0.0371 0.74024,-0.0176 0.75781,-0.0723 1.20508,-3.54687 -0.5586,-0.51758 -0.57617,-0.4668 -0.5918,-0.40625 -0.60937,-0.33789 -0.63086,-0.23828 -2.625,-0.51172 0.31641,-2.68945 -0.0918,-2.70703 2.6582,-0.29102 0.64844,-0.18554 0.63477,-0.28711 0.625,-0.35547 0.61132,-0.41602 0.59961,-0.4707 -0.90429,-3.63281 -0.75,-0.13477 -0.73633,-0.0801 -0.71875,-0.0215 -0.69531,0.0449 -0.66016,0.14063 -2.48242,0.98828 -1.18946,-2.4336 -1.54101,-2.22851 2.07812,-1.68164 0.44532,-0.50586 0.38086,-0.58399 0.33203,-0.63671 0.29101,-0.68165 0.25,-0.7207 -2.72656,-2.5664 -0.70312,0.29101 -0.66211,0.33008 -0.61719,0.37109 -0.56055,0.41406 -0.47851,0.47461 -1.55469,2.17578 -2.31641,-1.40625 -2.5,-1.04101 0.83985,-2.53711 0.0996,-0.66797 0.004,-0.69727 -0.0644,-0.71679 -0.12305,-0.72852 -0.17969,-0.74023 z m -2.46289,21.86524 a 2,2 0 0 1 1.64258,0.98828 2,2 0 0 1 -0.71484,2.73633 2,2 0 0 1 -2.73633,-0.71485 2,2 0 0 1 0.71484,-2.73828 2,2 0 0 1 1.09375,-0.27148 z"
     id="path1"
     inkscape:label="small_right" />
  <path
     id="polygon1"
     class="jp-icon-selectable"
     fill="#646464"
     d="m -232.88282,-194.2168 -3.74414,0.0234 -0.30859,0.69531 -0.25195,0.69727 -0.18946,0.69336 -0.11914,0.68554 -0.0195,0.67578 0.375,2.64649 -2.64453,0.58203 -2.5293,0.9707 -1.14453,-2.41601 -0.38672,-0.55274 -0.47851,-0.50586 -0.54102,-0.47461 -0.59375,-0.44335 -0.64062,-0.41016 -3.13672,2.04297 0.11719,0.75195 0.16406,0.72266 0.21484,0.68554 0.27149,0.64258 0.34765,0.57813 1.74805,2.02343 -1.91211,1.91797 -1.60156,2.18555 -2.26953,-1.41406 -0.625,-0.25586 -0.67578,-0.16797 -0.71094,-0.10547 -0.73828,-0.0527 -0.76172,0 -1.53516,3.41601 0.50586,0.57031 0.5293,0.51758 0.55078,0.46094 0.57617,0.39258 0.60547,0.29883 2.5625,0.75781 -0.57031,2.64844 -0.16602,2.70312 -2.67187,0.0371 -0.66407,0.12305 -0.66015,0.22461 -0.65625,0.29492 -0.64844,0.35547 -0.64062,0.41211 0.55468,3.70312 0.73438,0.20508 0.72461,0.15039 0.71289,0.0898 0.69726,0.0195 0.66993,-0.0762 2.5664,-0.74804 0.95117,2.53515 1.32227,2.36524 -2.22852,1.47656 -0.49023,0.46289 -0.43555,0.54492 -0.39062,0.60156 -0.35352,0.6504 -0.3164,0.69335 2.46875,2.81446 0.72851,-0.22267 0.68945,-0.26562 0.64844,-0.31055 0.59766,-0.35937 0.52343,-0.42774 1.75391,-2.01562 2.17187,1.61718 2.39063,1.27539 -1.07813,2.44727 -0.1621,0.6543 -0.0703,0.69336 -0.004,0.71875 0.0527,0.73828 0.10938,0.7539 3.59765,1.03321 0.49219,-0.58203 0.4375,-0.59766 0.37891,-0.61133 0.30664,-0.625 0.20898,-0.64062 0.38672,-2.64649 2.70117,0.1875 2.69922,-0.2207 0.41797,2.64062 0.2168,0.64063 0.3164,0.62109 0.38477,0.60743 0.44336,0.59179 0.5,0.57422 3.58593,-1.07617 0.0996,-0.75586 0.0449,-0.73828 -0.0137,-0.71875 -0.0781,-0.69141 -0.17188,-0.6543 -1.10547,-2.43359 2.375,-1.30273 2.15235,-1.64453 1.77734,1.99609 0.52735,0.41992 0.60156,0.35156 0.65234,0.30274 0.69532,0.25781 0.73046,0.21484 2.4336,-2.8457 -0.32422,-0.6875 -0.36133,-0.64648 -0.39844,-0.59766 -0.4414,-0.53906 -0.4961,-0.45703 -2.24804,-1.44922 1.29492,-2.38086 0.91992,-2.54688 2.57617,0.7168 0.66992,0.0684 0.69727,-0.0293 0.71289,-0.0977 0.72266,-0.15821 0.73048,-0.2148 0.50975,-3.70902 -0.64453,-0.40429 -0.65429,-0.34766 -0.65821,-0.28711 -0.66406,-0.21679 -0.66406,-0.11524 -2.67383,-0.004 -0.19922,-2.70117 -0.60156,-2.64062 2.55469,-0.78906 0.60156,-0.30665 0.57031,-0.40039 0.54688,-0.46679 0.52148,-0.52539 0.49805,-0.57422 -1.57618,-3.39844 -0.75976,0.01 -0.73828,0.0605 -0.70899,0.11524 -0.67578,0.17578 -0.62109,0.26367 -2.25195,1.44141 -1.62696,-2.16602 -1.93554,-1.89648 1.72265,-2.04297 0.3418,-0.58399 0.26367,-0.64453 0.20508,-0.68945 0.15625,-0.72266 0.10937,-0.7539 -3.16211,-2.00586 -0.63671,0.41992 -0.5879,0.44922 -0.53515,0.48047 -0.4707,0.51367 -0.38086,0.55664 -1.11524,2.42969 -2.54101,-0.94141 -2.65235,-0.54883 0.34375,-2.65039 -0.0273,-0.67578 -0.12695,-0.68555 -0.19922,-0.68945 -0.25977,-0.69336 z m -1.74023,21.9375 a 2,2 0 0 1 1.92773,1.42578 2,2 0 0 1 -1.33984,2.49024 2,2 0 0 1 -2.49023,-1.33985 2,2 0 0 1 1.33984,-2.49023 2,2 0 0 1 0.5625,-0.0859 z"
     inkscape:label="small_top" />
  <path
     id="polygon6"
     class="jp-icon-selectable"
     fill="#9f9260"
     d="m -227.89063,-108.03711 -3.67187,0.73047 -0.17188,0.74218 -0.11523,0.73243 -0.0547,0.71679 0.0117,0.69532 0.10937,0.66797 0.86914,2.52734 -2.48828,1.07031 -2.29882,1.433595 -1.58008,-2.156255 -0.48633,-0.46874 -0.56445,-0.40821 -0.6211,-0.36133 -0.66601,-0.32226 -0.70703,-0.2832 -2.69336,2.5996 0.25781,0.716802 0.29883,0.677734 0.33984,0.632812 0.38672,0.578125 0.45117,0.501953 2.09961,1.65625 -1.51367,2.248047 -1.16016,2.447266 -2.49414,-0.958984 -0.66211,-0.132813 -0.69726,-0.03711 -0.7168,0.03125 -0.73438,0.08789 -0.74804,0.144531 -0.86133,3.644532 0.60352,0.46289 0.61718,0.408203 0.62891,0.34961 0.64062,0.277344 0.6504,0.177734 2.66015,0.259766 -0.0586,2.707031 0.34765,2.6875 -2.61718,0.541015 -0.62696,0.248047 -0.60742,0.34375 -0.58789,0.414063 -0.56836,0.472656 -0.55273,0.525391 1.24609,3.53125 0.75977,0.0625 0.74023,0.0098 0.7168,-0.04688 0.6875,-0.111328 0.64453,-0.201171 2.3789,-1.220704 1.41407,2.308594 1.74609,2.072266 -1.91016,1.871094 -0.39453,0.546875 -0.32226,0.61914 -0.27149,0.664063 -0.22461,0.705078 -0.17968,0.740235 2.95703,2.296874 0.67383,-0.355469 0.62695,-0.392577 0.57812,-0.427735 0.51953,-0.464844 0.43165,-0.519531 1.34179,-2.3125 2.4375,1.179688 2.58789,0.798828 -0.59375,2.605468 -0.0351,0.673828 0.0605,0.695313 0.13282,0.705079 0.19336,0.714842 0.24804,0.720704 3.73047,0.332031 0.37305,-0.664062 0.3164,-0.667969 0.25391,-0.671875 0.18555,-0.671875 0.084,-0.669922 -0.12304,-2.669922 2.68945,-0.328124 2.60937,-0.726564 0.90821,2.513672 0.33398,0.585938 0.42774,0.550781 0.49218,0.523438 0.54883,0.496093 0.59961,0.470704 3.31641,-1.736328 -0.0449,-0.759768 -0.0957,-0.734375 -0.14843,-0.703124 -0.20899,-0.664062 -0.29101,-0.609376 -1.54688,-2.179688 2.08594,-1.728515 1.80078,-2.023438 2.125,1.623048 0.59766,0.3125 0.6582,0.232421 0.69726,0.173828 0.72852,0.121094 0.75977,0.07227 1.85156,-3.253906 -0.44922,-0.615235 -0.47656,-0.564453 -0.50586,-0.511719 -0.53516,-0.447265 -0.57422,-0.353516 -2.47851,-0.998047 0.81836,-2.582031 0.42187,-2.675781 2.66602,0.216797 0.67187,-0.06055 0.67774,-0.160156 0.67968,-0.230469 0.68164,-0.292969 0.67579,-0.347656 -0.20118,-3.740234 -0.70898,-0.273438 -0.70898,-0.21875 -0.70118,-0.15625 -0.6914,-0.08789 -0.67383,0.01367 -2.62695,0.5 -0.70508,-2.615235 -1.0918,-2.478515 2.35938,-1.257813 0.5332,-0.414062 0.48242,-0.501954 0.44922,-0.562499 0.41211,-0.613282 0.38086,-0.658203 -2.18945,-3.03711 -0.7461,0.152344 -0.71289,0.199219 -0.67578,0.246094 -0.62695,0.302735 -0.5625,0.374999 -1.9375,1.839844 -2.00782,-1.816406 -2.25781,-1.496094 1.30469,-2.333986 0.22461,-0.63672 0.13476,-0.68359 0.0723,-0.71484 0.0176,-0.74024 -0.0371,-0.75977 -3.48442,-1.37108 -0.54492,0.5332 -0.49219,0.55274 -0.43359,0.57226 -0.36719,0.59375 -0.26758,0.61719 -0.63672,2.59766 -2.67187,-0.44336 -2.70703,-0.0371 -0.16406,-2.66797 -0.15625,-0.65821 -0.25391,-0.64843 -0.32617,-0.64063 -0.38672,-0.63086 z m 2.72656,21.835936 a 2,2 0 0 1 2.10352,1.888672 2,2 0 0 1 -1.88867,2.105469 2,2 0 0 1 -2.10547,-1.890625 2,2 0 0 1 1.89062,-2.103516 z"
     inkscape:label="small_bottom" />
</svg>
