<?xml version="1.0" encoding="UTF-8" standalone="no"?>
<svg
   viewBox="0 0 24 24"
   version="1.1"
   xmlns="http://www.w3.org/2000/svg">
  <g class="jp-icon-selectable jp-icon3" fill="#616161">
    <path
       d="M 21.939453 17.714844 C 21.770649 17.781584 21.58954 17.820312 21.400391 17.820312 L 19.490234 17.820312 L 19.490234 20.169922 C 19.490234 20.169922 19.379766 20.429688 19.259766 20.429688 L 4.5390625 20.429688 C 4.4190625 20.429688 4.3007813 20.429922 4.3007812 20.169922 L 4.3007812 17.820312 L 2.5996094 17.820312 C 2.2914969 17.820312 2.0046132 17.721338 1.7597656 17.554688 L 1.7597656 21.060547 C 1.7597656 22.200547 2.5791406 23.089844 3.6191406 23.089844 L 20.080078 23.089844 C 21.130078 23.089844 21.939453 22.190547 21.939453 21.060547 L 21.939453 17.714844 z " />
    <path
       d="M 3.6191406 0.91015625 C 2.6891406 1.0401562 1.7597656 2.0594531 1.7597656 3.1894531 L 1.7597656 9.0253906 C 2.0046132 8.8587401 2.2914969 8.7597656 2.5996094 8.7597656 L 4.3007812 8.7597656 L 4.3007812 4.0800781 C 4.3007812 3.8300781 4.4190625 3.6992187 4.5390625 3.6992188 L 12.880859 3.6992188 L 12.880859 8.7597656 L 14.75 8.7597656 L 14.75 4.3398438 L 18.568359 8.7597656 L 21.400391 8.7597656 C 21.498819 8.7597656 21.593859 8.7701776 21.6875 8.7890625 A 1.72 1.72 0 0 0 21.470703 8.5195312 L 21.460938 8.5195312 L 15.099609 1.5507812 A 1.84 1.84 0 0 0 13.699219 0.91015625 L 3.6191406 0.91015625 z " />
    <path
       d="M 2.5996094,8.2597656 C 1.420367,8.2597656 0.5,9.2973684 0.5,10.5 v 5.580078 c 0,1.202632 0.920367,2.240234 2.0996094,2.240234 H 21.400391 C 22.579633,18.320312 23.5,17.28271 23.5,16.080078 V 10.5 c 0,-1.2026316 -0.920367,-2.2402344 -2.099609,-2.2402344 z m 0,1 H 21.400391 C 21.981148,9.2597656 22.5,9.8026316 22.5,10.5 v 5.580078 c 0,0.697369 -0.518852,1.240234 -1.099609,1.240234 H 2.5996094 C 2.0188518,17.320312 1.5,16.777447 1.5,16.080078 V 10.5 C 1.5,9.8026316 2.0188518,9.2597656 2.5996094,9.2597656 Z" />
    <path
       d="M9.73 14.41c0 .34-.08.64-.24.9-.16.26-.4.47-.7.61-.3.14-.66.22-1.07.22-.83 0-1.48-.27-1.97-.79l.6-.72c.38.37.82.55 1.34.55.25 0 .44-.06.6-.17a.6.6 0 0 0 .22-.5c0-.2-.06-.35-.2-.46a2.07 2.07 0 0 0-.7-.34c-.58-.2-.99-.42-1.23-.68a1.4 1.4 0 0 1-.37-1c0-.33.08-.61.25-.85.16-.24.39-.43.67-.55.28-.13.6-.19.95-.19.73 0 1.32.24 1.78.7l-.56.7a1.7 1.7 0 0 0-1.13-.45.93.93 0 0 0-.55.14.44.44 0 0 0-.2.39c0 .11.04.21.1.29.06.08.16.15.3.22.13.07.34.15.62.24.5.17.88.38 1.12.65.25.26.37.63.37 1.1ZM12.7 16h-1.18v-4.43h-1.4v-.99h4.02l-.12.99H12.7V16Zm2.22-5.42h1.18v4.4h2.14l-.1 1.02h-3.22v-5.42Z" />
  </g>
</svg>
