<?xml version="1.0" encoding="UTF-8" standalone="no"?>
<svg
   viewBox="0 0 24 24"
   version="1.1"
   xmlns="http://www.w3.org/2000/svg">
  <g class="jp-icon-selectable jp-icon3" fill="#616161">
    <path
       d="M 21.940039 17.714453 C 21.770921 17.781473 21.589565 17.819922 21.4 17.819922 L 19.490039 17.819922 L 19.490039 20.169922 C 19.490039 20.169922 19.379961 20.430078 19.259961 20.430078 L 4.5400391 20.430078 C 4.4200391 20.430078 4.3 20.429922 4.3 20.169922 L 4.3 17.819922 L 2.6 17.819922 C 2.2920338 17.819922 2.0047336 17.721583 1.7599609 17.555078 L 1.7599609 21.059961 C 1.7599609 22.199961 2.5799219 23.090039 3.6199219 23.090039 L 20.080078 23.090039 C 21.130078 23.090039 21.940039 22.189961 21.940039 21.059961 L 21.940039 17.714453 z "/>
    <path
       d="M 3.6199219 0.90996094 C 2.6899219 1.0399609 1.7599609 2.0600391 1.7599609 3.1900391 L 1.7599609 9.0248047 C 2.0047259 8.8583145 2.2920489 8.7599609 2.6 8.7599609 L 4.3 8.7599609 L 4.3 4.0800781 C 4.3 3.8300781 4.4200391 3.7 4.5400391 3.7 L 12.880078 3.7 L 12.880078 8.7599609 L 14.75 8.7599609 L 14.75 4.3400391 L 18.568945 8.7599609 L 21.4 8.7599609 C 21.498268 8.7599609 21.594198 8.7712142 21.687695 8.7900391 A 1.72 1.72 0 0 0 21.469922 8.5199219 L 21.459961 8.5199219 L 15.1 1.55 A 1.84 1.84 0 0 0 13.7 0.90996094 L 3.6199219 0.90996094 z "/>
    <path
       d="M 2.5996094,8.2597656 C 1.420367,8.2597656 0.5,9.2973684 0.5,10.5 v 5.580078 c 0,1.202632 0.920367,2.240235 2.0996094,2.240234 H 21.400391 C 22.579633,18.320312 23.5,17.28271 23.5,16.080078 V 10.5 c 0,-1.2026316 -0.920367,-2.2402344 -2.099609,-2.2402344 z m 0,1 H 21.400391 C 21.981148,9.2597656 22.5,9.8026316 22.5,10.5 v 5.580078 c 0,0.697369 -0.518852,1.240234 -1.099609,1.240234 H 2.5996094 C 2.0188518,17.320313 1.5,16.777447 1.5,16.080078 V 10.5 C 1.5,9.8026316 2.0188518,9.2597656 2.5996094,9.2597656 Z"/>
    <path
       d="m 9.74,14.42 c 0,0.34 -0.08,0.64 -0.24,0.9 -0.17,0.26 -0.4,0.46 -0.7,0.61 -0.3,0.14 -0.67,0.21 -1.08,0.21 -0.82,0 -1.48,-0.26 -1.96,-0.78 l 0.59,-0.72 c 0.38,0.36 0.82,0.55 1.34,0.55 0.25,0 0.45,-0.06 0.6,-0.18 a 0.6,0.6 0 0 0 0.22,-0.49 c 0,-0.2 -0.06,-0.35 -0.19,-0.46 a 2.03,2.03 0 0 0 -0.7,-0.35 c -0.58,-0.19 -1,-0.42 -1.24,-0.68 -0.24,-0.26 -0.37,-0.6 -0.37,-1 0,-0.33 0.08,-0.61 0.25,-0.85 0.16,-0.24 0.39,-0.43 0.67,-0.55 0.29,-0.13 0.6,-0.19 0.95,-0.19 0.73,0 1.33,0.24 1.78,0.7 l -0.55,0.7 a 1.7,1.7 0 0 0 -1.14,-0.45 0.93,0.93 0 0 0 -0.55,0.14 0.44,0.44 0 0 0 -0.19,0.4 c 0,0.1 0.03,0.2 0.09,0.28 0.06,0.08 0.16,0.15 0.3,0.22 0.14,0.07 0.34,0.15 0.62,0.24 0.5,0.17 0.88,0.39 1.13,0.65 0.25,0.26 0.37,0.63 0.37,1.1 z M 12.7,16 h -1.18 v -4.43 h -1.4 v -0.99 h 4.03 l -0.12,0.99 H 12.7 Z m 5.7,-3.65 c 0,0.61 -0.18,1.08 -0.54,1.39 -0.35,0.3 -0.82,0.46 -1.43,0.46 H 15.89 V 16 H 14.7 v -5.42 h 1.56 c 0.7,0 1.22,0.15 1.58,0.45 0.36,0.3 0.54,0.73 0.54,1.32 z m -1.21,0 c 0,-0.57 -0.3,-0.85 -0.9,-0.85 h -0.4 v 1.78 h 0.46 c 0.27,0 0.47,-0.08 0.62,-0.23 0.15,-0.15 0.22,-0.39 0.22,-0.7 z"/>
  </g>
</svg>
