<?xml version="1.0" encoding="UTF-8" standalone="no"?>
<svg
   viewBox="0 0 24 24"
   version="1.1"
   xmlns="http://www.w3.org/2000/svg">
<g class="jp-icon3" fill="#616161">
    <path
       d="m 11.929682,0.13867534 a 0.90209021,0.90209021 0 0 0 -0.0332,0.005859 0.90209021,0.90209021 0 0 0 -0.103515,0.0214844 0.90209021,0.90209021 0 0 0 -0.107422,0.03125 0.90209021,0.90209021 0 0 0 -0.03125,0.007812 0.90209021,0.90209021 0 0 0 -0.05859,0.0332031 0.90209021,0.90209021 0 0 0 -0.0957,0.0527344 0.90209021,0.90209021 0 0 0 -0.08008,0.0625 0.90209021,0.90209021 0 0 0 -0.05859,0.046875 L 8.6269596,3.1347682 a 0.90200001,0.90200001 0 0 0 0,1.2773438 0.90200001,0.90200001 0 0 0 1.277344,0 L 11.097654,3.2187526 V 7.445316 a 0.90200001,0.90200001 0 0 0 0.90234,0.9023438 0.90200001,0.90200001 0 0 0 0.902344,-0.9023438 V 3.2187535 l 1.193359,1.1933594 a 0.90200001,0.90200001 0 0 0 1.277344,0 0.90200001,0.90200001 0 0 0 0,-1.2773438 L 12.679682,0.44336285 a 0.90209021,0.90209021 0 0 0 -0.04102,-0.0429688 0.90209021,0.90209021 0 0 0 -0.158203,-0.12304688 0.90209021,0.90209021 0 0 0 -0.0078,-0.007813 0.90209021,0.90209021 0 0 0 -0.0098,-0.003906 0.90209021,0.90209021 0 0 0 -0.117162,-0.0605468 0.90209021,0.90209021 0 0 0 -0.03125,-0.007813 0.90209021,0.90209021 0 0 0 -0.107422,-0.03125 0.90209021,0.90209021 0 0 0 -0.103515,-0.0214844 0.90209021,0.90209021 0 0 0 -0.103516,-0.003906 0.90209021,0.90209021 0 0 0 -0.07031,-0.001953 z" />
    <path
       d="m 11.929688,23.86132 a 0.90209021,0.90209021 0 0 1 -0.0332,-0.0059 0.90209021,0.90209021 0 0 1 -0.103515,-0.02148 0.90209021,0.90209021 0 0 1 -0.107422,-0.03125 0.90209021,0.90209021 0 0 1 -0.03125,-0.0078 0.90209021,0.90209021 0 0 1 -0.05859,-0.0332 0.90209021,0.90209021 0 0 1 -0.0957,-0.05273 0.90209021,0.90209021 0 0 1 -0.08008,-0.0625 0.90209021,0.90209021 0 0 1 -0.05859,-0.04687 L 8.626953,20.865229 a 0.90200001,0.90200001 0 0 1 0,-1.277344 0.90200001,0.90200001 0 0 1 1.277344,0 l 1.193359,1.193359 V 16.554682 A 0.90200001,0.90200001 0 0 1 12,15.652338 a 0.90200001,0.90200001 0 0 1 0.902344,0.902344 v 4.226562 l 1.193359,-1.193359 a 0.90200001,0.90200001 0 0 1 1.277344,0 0.90200001,0.90200001 0 0 1 0,1.277344 l -2.693359,2.691406 a 0.90209021,0.90209021 0 0 1 -0.04102,0.04297 0.90209021,0.90209021 0 0 1 -0.158203,0.123047 0.90209021,0.90209021 0 0 1 -0.0078,0.0078 0.90209021,0.90209021 0 0 1 -0.0098,0.0039 0.90209021,0.90209021 0 0 1 -0.117162,0.06055 0.90209021,0.90209021 0 0 1 -0.03125,0.0078 0.90209021,0.90209021 0 0 1 -0.107422,0.03125 0.90209021,0.90209021 0 0 1 -0.103515,0.02148 0.90209021,0.90209021 0 0 1 -0.103516,0.0039 0.90209021,0.90209021 0 0 1 -0.07031,0.002 z" />
    <path
       d="m 23.861325,11.929682 a 0.90209021,0.90209021 0 0 0 -0.0059,-0.0332 0.90209021,0.90209021 0 0 0 -0.02148,-0.103515 0.90209021,0.90209021 0 0 0 -0.03125,-0.107422 0.90209021,0.90209021 0 0 0 -0.0078,-0.03125 0.90209021,0.90209021 0 0 0 -0.0332,-0.05859 0.90209021,0.90209021 0 0 0 -0.05274,-0.0957 0.90209021,0.90209021 0 0 0 -0.0625,-0.08008 0.90209021,0.90209021 0 0 0 -0.04687,-0.05859 L 20.865232,8.6269596 a 0.90200001,0.90200001 0 0 0 -1.277343,0 0.90200001,0.90200001 0 0 0 0,1.277344 l 1.193359,1.1933504 h -4.226563 a 0.90200001,0.90200001 0 0 0 -0.902344,0.90234 0.90200001,0.90200001 0 0 0 0.902344,0.902344 h 4.226562 l -1.193359,1.193359 a 0.90200001,0.90200001 0 0 0 0,1.277344 0.90200001,0.90200001 0 0 0 1.277343,0 l 2.691407,-2.693359 a 0.90209021,0.90209021 0 0 0 0.04297,-0.04102 0.90209021,0.90209021 0 0 0 0.123046,-0.158203 0.90209021,0.90209021 0 0 0 0.0078,-0.0078 0.90209021,0.90209021 0 0 0 0.0039,-0.0098 0.90209021,0.90209021 0 0 0 0.06055,-0.117162 0.90209021,0.90209021 0 0 0 0.0078,-0.03125 0.90209021,0.90209021 0 0 0 0.03125,-0.107422 0.90209021,0.90209021 0 0 0 0.02149,-0.103515 0.90209021,0.90209021 0 0 0 0.0039,-0.103516 0.90209021,0.90209021 0 0 0 0.002,-0.07031 z" />
    <path
       d="m 0.138681,11.929688 a 0.90209021,0.90209021 0 0 1 0.0059,-0.0332 0.90209021,0.90209021 0 0 1 0.02148,-0.103515 0.90209021,0.90209021 0 0 1 0.03125,-0.107422 0.90209021,0.90209021 0 0 1 0.0078,-0.03125 0.90209021,0.90209021 0 0 1 0.0332,-0.05859 0.90209021,0.90209021 0 0 1 0.05273,-0.0957 0.90209021,0.90209021 0 0 1 0.0625,-0.08008 0.90209021,0.90209021 0 0 1 0.04687,-0.05859 L 3.134772,8.6269531 a 0.90200001,0.90200001 0 0 1 1.277344,0 0.90200001,0.90200001 0 0 1 0,1.277344 L 3.218757,11.097656 H 7.445319 A 0.90200001,0.90200001 0 0 1 8.347663,12 0.90200001,0.90200001 0 0 1 7.445319,12.902344 H 3.218757 l 1.193359,1.193359 a 0.90200001,0.90200001 0 0 1 0,1.277344 0.90200001,0.90200001 0 0 1 -1.277344,0 L 0.443366,12.679688 a 0.90209021,0.90209021 0 0 1 -0.04297,-0.04102 0.90209021,0.90209021 0 0 1 -0.123047,-0.158203 0.90209021,0.90209021 0 0 1 -0.0078,-0.0078 0.90209021,0.90209021 0 0 1 -0.0039,-0.0098 0.90209021,0.90209021 0 0 1 -0.06055,-0.117162 0.90209021,0.90209021 0 0 1 -0.0078,-0.03125 A 0.90209021,0.90209021 0 0 1 0.166049,12.207031 0.90209021,0.90209021 0 0 1 0.144569,12.103516 0.90209021,0.90209021 0 0 1 0.140669,12 a 0.90209021,0.90209021 0 0 1 -0.002,-0.07031 z" />
    <circle
       cx="12"
       cy="12"
       r="1.84375" />
</g>
</svg>
