<!DOCTYPE svg PUBLIC "-//W3C//DTD SVG 1.1//EN" "http://www.w3.org/Graphics/SVG/1.1/DTD/svg11.dtd">
<!-- Uploaded to: SVG Repo, www.svgrepo.com, Transformed by: SVG Repo Mixer Tools -->
<svg width="64px" height="64px" viewBox="0 0 70.00 70.00" xmlns:dc="http://purl.org/dc/elements/1.1/" xmlns:cc="http://creativecommons.org/ns#" xmlns:rdf="http://www.w3.org/1999/02/22-rdf-syntax-ns#" xmlns="http://www.w3.org/2000/svg" fill="#616161" stroke="#616161" stroke-width="0.00070000002" transform="rotate(0)">
<g id="SVGRepo_bgCarrier" stroke-width="0"/>
<g id="SVGRepo_tracerCarrier" stroke-linecap="round" stroke-linejoin="round" stroke="#CCCCCC" stroke-width="0.28000000799999997"/>
<g id="SVGRepo_iconCarrier"> <metadata> <rdf:rdf> <cc:work> <dc:subject> Compute </dc:subject> <dc:identifier> service-fabric-cluster </dc:identifier> <dc:title> Service Fabric Cluster </dc:title> <dc:format> image/svg+xml </dc:format> <dc:publisher> Amido Limited </dc:publisher> <dc:creator> Richard Slater </dc:creator> <dc:type rdf:resource="http://purl.org/dc/dcmitype/StillImage"/> </cc:work> </rdf:rdf> </metadata> <path d="m 323.40612,258.6123 a 11.087409,11.087409 0 0 0 -11.08792,11.08793 11.087409,11.087409 0 0 0 0.51313,3.29145 l -6.98471,5.82994 a 11.087409,11.087409 0 0 0 -6.10505,-1.84075 11.087409,11.087409 0 0 0 -11.08702,11.08793 11.087409,11.087409 0 0 0 9.21369,10.91597 l 2.85162,10.20918 a 11.087409,11.087409 0 0 0 -3.791,8.33043 11.087409,11.087409 0 0 0 11.08702,11.08792 11.087409,11.087409 0 0 0 10.45896,-7.44715 l 10.63362,0 a 11.087409,11.087409 0 0 0 10.34946,7.11593 11.087409,11.087409 0 0 0 11.08702,-11.08702 11.087409,11.087409 0 0 0 -4.18558,-8.66346 l 2.65524,-9.50329 a 11.087409,11.087409 0 0 0 9.47342,-10.95851 11.087409,11.087409 0 0 0 -11.08701,-11.08793 11.087409,11.087409 0 0 0 -6.12407,1.85342 l -7.23267,-6.03809 a 11.087409,11.087409 0 0 0 0.44888,-3.09597 11.087409,11.087409 0 0 0 -11.08703,-11.08793 z m 7.32408,19.39302 6.58108,5.49328 a 11.087409,11.087409 0 0 0 -0.99729,4.5702 11.087409,11.087409 0 0 0 6.57746,10.11868 l -2.23171,7.98833 a 11.087409,11.087409 0 0 0 -1.20182,-0.0697 11.087409,11.087409 0 0 0 -10.87345,8.93586 l -9.77659,0 a 11.087409,11.087409 0 0 0 -10.792,-8.60463 11.087409,11.087409 0 0 0 -1.67061,0.13484 l -2.31587,-8.29061 a 11.087409,11.087409 0 0 0 6.8001,-10.21279 11.087409,11.087409 0 0 0 -1.00907,-4.5883 l 6.39827,-5.34215 a 11.087409,11.087409 0 0 0 7.18742,2.6489 11.087409,11.087409 0 0 0 7.32408,-2.78193 z" color="#000000" overflow="visible" fill="#616161" enable-background="accumulate" transform="translate(-288.655 -258.612)"/> </g>
</svg>
